<svg width="378" height="378" viewBox="0 0 378 378" fill="none" xmlns="http://www.w3.org/2000/svg">
<path d="M332.865 77.5028C315.012 50.8682 284.713 31.9297 252.652 31.4398C220.592 30.9499 188.184 50.8062 177.385 80.9963C172.121 95.7126 171.952 111.704 168.86 127.025C165.768 142.345 158.599 158.285 144.581 165.198C125.597 174.56 103.082 163.865 81.9384 164.875C58.0118 166.017 36.3214 183.508 27.8844 205.927C19.4474 228.346 23.5472 254.502 36.3871 274.724C49.227 294.946 70.0896 309.39 92.8513 316.854C115.613 324.318 169.259 328.658 192.998 325.461C204.184 324.976 215.288 323.198 226.02 320.008C258.665 310.304 285.234 294.007 307.325 271.09C333.663 243.767 350.083 207.233 353.759 169.461C356.866 137.549 350.717 104.137 332.865 77.5028Z" fill="#EBEBEB"/>
<path d="M210.499 349.316C197.47 343.147 192.271 328.484 190.434 314.824C190.127 312.544 189.474 310.196 190.216 308.024C190.958 305.853 193.244 304.068 195.436 304.679C197.253 305.187 198.319 307.021 199.535 308.482C201.153 310.425 203.321 311.892 205.711 312.661C207.282 313.166 209.145 313.322 210.438 312.295C212.211 310.885 211.985 308.145 211.589 305.892C210.851 301.694 210.114 297.495 209.377 293.298C208.982 291.046 208.586 288.744 208.924 286.485C209.264 284.227 210.477 281.977 212.52 281.013C214.564 280.049 217.426 280.837 218.252 282.968C218.596 283.855 218.57 284.84 218.791 285.765C219.012 286.69 219.623 287.653 220.556 287.762C221.501 287.874 222.295 287.083 222.858 286.309C224.8 283.638 225.883 280.438 226.866 277.271C227.849 274.105 228.776 270.876 230.467 268.036C232.159 265.196 234.747 262.733 237.945 262.004C241.144 261.275 244.921 262.686 246.274 265.718C247.63 268.759 246.321 272.298 244.738 275.213C242.39 279.537 239.419 283.513 235.948 286.975C235.323 287.6 234.645 288.276 234.514 289.156C234.278 290.742 235.956 291.994 237.524 292.238C239.299 292.513 241.094 292.03 242.887 291.94C244.68 291.849 246.716 292.303 247.663 293.852C248.976 296 247.457 298.742 245.829 300.645C242.567 304.456 238.653 307.693 234.314 310.17C232.758 311.058 231.102 311.886 229.962 313.277C228.821 314.67 228.357 316.832 229.433 318.284C230.511 319.737 232.671 319.894 234.354 319.278C236.036 318.662 237.432 317.455 238.982 316.551C241.883 314.857 245.921 314.393 248.359 316.736C249.961 318.276 250.491 320.707 250.186 322.918C249.882 325.128 248.85 327.161 247.71 329.069C243.729 335.736 238.165 341.503 231.398 345.211C224.632 348.919 218.085 350.72 210.499 349.316Z" fill="#DA671D"/>
<path d="M212.565 340.208C213.404 333.016 214.978 325.208 216.905 317.098C217.394 315.073 217.878 313.071 218.354 311.099C218.834 309.131 219.31 307.179 219.893 305.299C221.044 301.533 222.438 298 223.865 294.688C225.292 291.374 226.767 288.281 228.166 285.399C229.573 282.519 230.935 279.859 232.279 277.488C234.954 272.734 237.56 269.162 239.449 266.782C240.391 265.588 241.153 264.687 241.677 264.083C241.931 263.796 242.128 263.57 242.278 263.399C242.414 263.248 242.488 263.172 242.493 263.176C242.499 263.181 242.437 263.266 242.311 263.427C242.17 263.604 241.981 263.839 241.742 264.138C241.24 264.76 240.5 265.677 239.578 266.885C237.731 269.292 235.172 272.878 232.538 277.638C231.214 280.012 229.871 282.673 228.48 285.556C227.095 288.443 225.634 291.536 224.22 294.846C222.806 298.154 221.426 301.677 220.287 305.424C219.71 307.294 219.24 309.23 218.76 311.202C218.284 313.174 217.802 315.174 217.314 317.199C215.389 325.302 213.807 333.088 212.949 340.257" fill="#994814"/>
<path d="M220.01 305.263C219.982 305.272 219.848 304.942 219.626 304.338C219.403 303.735 219.108 302.852 218.759 301.756C218.061 299.565 217.199 296.505 216.262 293.13C215.325 289.752 214.422 286.714 213.693 284.539C213.33 283.452 213.029 282.573 212.813 281.969C212.599 281.364 212.494 281.023 212.521 281.011C212.547 281 212.704 281.32 212.965 281.909C213.228 282.495 213.574 283.361 213.972 284.44C214.777 286.597 215.729 289.634 216.667 293.015C217.584 296.349 218.412 299.365 219.045 301.67C219.338 302.709 219.585 303.585 219.784 304.288C219.954 304.907 220.038 305.254 220.01 305.263Z" fill="#994814"/>
<path d="M248.084 294.941C248.089 294.969 247.685 295.087 246.95 295.275C246.218 295.467 245.156 295.739 243.855 296.118C241.249 296.853 237.683 297.996 233.805 299.429C229.928 300.869 226.475 302.321 224.008 303.444C222.77 303.997 221.78 304.471 221.094 304.795C220.409 305.122 220.023 305.289 220.01 305.264C219.996 305.237 220.357 305.02 221.02 304.647C221.684 304.278 222.657 303.761 223.882 303.171C226.324 301.975 229.771 300.474 233.659 299.029C237.549 297.593 241.143 296.491 243.778 295.828C245.092 295.486 246.168 295.257 246.914 295.114C247.662 294.975 248.077 294.912 248.084 294.941Z" fill="#994814"/>
<path d="M212.831 339.615C212.819 339.623 212.73 339.513 212.572 339.295C212.39 339.034 212.168 338.716 211.899 338.33C211.319 337.49 210.51 336.251 209.531 334.709C207.57 331.625 204.996 327.278 202.221 322.445C199.443 317.608 196.914 313.245 195.02 310.124C194.095 308.608 193.333 307.361 192.767 306.434C192.524 306.031 192.323 305.699 192.159 305.426C192.025 305.193 191.959 305.068 191.971 305.059C191.983 305.051 192.072 305.162 192.23 305.379C192.413 305.64 192.634 305.958 192.903 306.343C193.484 307.184 194.293 308.422 195.272 309.965C197.232 313.049 199.806 317.395 202.583 322.231C205.359 327.066 207.889 331.429 209.782 334.55C210.709 336.066 211.47 337.314 212.035 338.24C212.279 338.643 212.479 338.975 212.643 339.247C212.778 339.48 212.844 339.607 212.831 339.615Z" fill="#994814"/>
<path d="M249.255 320.682C249.261 320.695 249.138 320.771 248.899 320.904C248.615 321.056 248.267 321.242 247.844 321.468C246.867 321.977 245.549 322.666 243.945 323.502C240.652 325.221 236.133 327.647 231.142 330.335C226.151 333.024 221.604 335.411 218.275 337.062C216.611 337.888 215.258 338.543 214.314 338.976C213.877 339.173 213.516 339.336 213.224 339.469C212.973 339.577 212.837 339.628 212.831 339.614C212.825 339.6 212.948 339.525 213.186 339.391C213.469 339.24 213.818 339.054 214.241 338.828C215.218 338.318 216.536 337.63 218.14 336.793C221.432 335.075 225.953 332.648 230.944 329.96C235.935 327.272 240.481 324.885 243.809 323.234C245.473 322.408 246.826 321.753 247.771 321.32C248.208 321.122 248.568 320.959 248.862 320.827C249.113 320.719 249.248 320.669 249.255 320.682Z" fill="#994814"/>
<path d="M115.969 187.043C115.969 187.043 106.986 188.291 112.029 207.964C117.073 227.638 121.35 237.777 121.35 237.777C121.35 237.777 122.028 242.234 118.436 242.095C114.843 241.958 107.52 239.041 105.036 242.917C102.459 246.938 104.711 251.781 110.346 256.851C115.98 261.922 127.916 273.482 128.991 274.532C130.047 275.562 130.847 277.745 128.385 278.043C125.923 278.342 108.438 276.289 107.961 284.645C107.484 293 125.501 304.546 127.447 305.845C129.392 307.145 129.699 308.162 129.262 309.292C128.826 310.423 123.014 309.179 118.018 308.799C113.021 308.419 107.16 308.854 107.289 313.698C107.417 318.541 116.877 330.78 144.475 339.881L157.54 343.261L167.198 333.751C186.625 312.138 188.753 296.816 186.458 292.549C184.162 288.282 178.861 290.817 174.712 293.63C170.565 296.443 166.139 300.41 165.2 299.646C164.259 298.882 164.02 297.847 165.063 295.753C166.105 293.658 176.002 274.685 171.436 267.672C166.87 260.659 152.717 271.129 150.432 272.093C148.147 273.058 147.757 270.766 148.162 269.347C148.573 267.902 153.186 251.938 155.556 244.738C157.925 237.539 157.473 232.216 153.24 230.008C149.157 227.88 144.252 234.049 141.203 235.954C138.154 237.859 136.528 233.655 136.528 233.655C136.528 233.655 135.201 222.73 129.801 203.152C124.401 183.573 115.791 187.082 115.791 187.082" fill="#C45D1A"/>
<path d="M157.526 346.51C153.616 332.115 147.098 306.415 141.387 284.379C135.679 262.351 130.491 242.411 126.656 227.999C124.734 220.807 123.177 214.981 122.096 210.935C121.562 208.933 121.146 207.373 120.859 206.294C120.725 205.776 120.621 205.373 120.547 205.085C120.479 204.812 120.455 204.669 120.455 204.669C120.455 204.669 120.507 204.804 120.589 205.073C120.673 205.359 120.79 205.758 120.94 206.272C121.246 207.346 121.687 208.899 122.253 210.892C123.388 214.906 124.99 220.725 126.942 227.923C130.852 242.317 136.085 262.246 141.793 284.274C147.504 306.31 153.976 332.02 157.812 346.432" fill="#994814"/>
<path d="M115.115 247.41C115.131 247.386 115.437 247.551 115.976 247.872C116.517 248.19 117.285 248.673 118.229 249.279C120.113 250.494 122.674 252.238 125.465 254.213C128.21 256.171 130.692 257.942 132.591 259.297C133.451 259.901 134.176 260.413 134.759 260.823C135.272 261.181 135.549 261.391 135.534 261.416C135.519 261.44 135.212 261.277 134.67 260.961C134.13 260.641 133.362 260.158 132.424 259.542C130.551 258.309 128.014 256.532 125.224 254.557C122.467 252.619 119.973 250.867 118.065 249.526C117.201 248.925 116.473 248.418 115.887 248.01C115.376 247.646 115.1 247.434 115.115 247.41Z" fill="#994814"/>
<path d="M136.623 260.775C136.525 260.712 139.889 255.275 144.134 248.632C148.38 241.986 151.901 236.651 151.998 236.713C152.096 236.775 148.733 242.211 144.487 248.857C140.241 255.501 136.72 260.837 136.623 260.775Z" fill="#994814"/>
<path d="M143.865 295.004C143.847 294.981 144.103 294.736 144.582 294.312C145.129 293.834 145.81 293.237 146.62 292.528C148.339 291.021 150.703 288.928 153.226 286.524C155.756 284.124 157.97 281.874 159.56 280.232C160.309 279.459 160.94 278.809 161.445 278.287C161.893 277.831 162.151 277.587 162.173 277.606C162.195 277.626 161.978 277.906 161.566 278.398C161.154 278.888 160.547 279.588 159.776 280.434C158.239 282.132 156.052 284.422 153.515 286.828C150.984 289.239 148.582 291.302 146.811 292.754C145.923 293.477 145.198 294.054 144.685 294.437C144.174 294.824 143.883 295.027 143.865 295.004Z" fill="#994814"/>
<path d="M121.752 287.198C121.761 287.17 122.079 287.249 122.647 287.415C123.298 287.616 124.097 287.863 125.039 288.155C127.053 288.797 129.826 289.711 132.881 290.746C135.936 291.781 138.694 292.74 140.684 293.454C141.61 293.796 142.394 294.085 143.034 294.321C143.586 294.534 143.886 294.665 143.877 294.693C143.868 294.72 143.549 294.641 142.981 294.476C142.331 294.275 141.532 294.027 140.589 293.735C138.575 293.094 135.802 292.179 132.746 291.144C129.692 290.109 126.934 289.15 124.944 288.437C124.019 288.096 123.234 287.806 122.595 287.57C122.043 287.356 121.742 287.225 121.752 287.198Z" fill="#994814"/>
<path d="M124.306 318.228C124.315 318.2 124.722 318.305 125.449 318.517C126.249 318.761 127.28 319.077 128.519 319.454C131.105 320.262 134.668 321.407 138.595 322.696C142.523 323.985 146.073 325.174 148.635 326.054C149.856 326.484 150.873 326.841 151.663 327.118C152.375 327.378 152.763 327.535 152.754 327.563C152.745 327.59 152.339 327.486 151.611 327.274C150.811 327.03 149.78 326.715 148.542 326.337C145.956 325.529 142.393 324.384 138.464 323.096C134.536 321.807 130.988 320.618 128.426 319.737C127.205 319.308 126.187 318.951 125.398 318.674C124.686 318.412 124.297 318.255 124.306 318.228Z" fill="#994814"/>
<path d="M152.137 327.146C152.117 327.124 152.434 326.805 153.023 326.246C153.668 325.639 154.511 324.846 155.525 323.892C157.636 321.902 160.54 319.142 163.66 316.006C166.786 312.873 169.541 309.963 171.52 307.842C172.471 306.825 173.261 305.98 173.866 305.333C174.422 304.742 174.74 304.425 174.762 304.443C174.784 304.462 174.508 304.817 173.988 305.441C173.469 306.066 172.704 306.957 171.739 308.042C169.814 310.216 167.089 313.163 163.958 316.301C160.832 319.443 157.891 322.174 155.726 324.109C154.641 325.075 153.756 325.847 153.132 326.367C152.509 326.89 152.156 327.168 152.137 327.146Z" fill="#994814"/>
<path d="M76.9601 69.7327L69.5823 67.4307C69.5823 67.4307 67.6499 73.6253 61.1778 71.7278C57.8166 70.7427 56.7666 68.0113 56.5851 66.1137C56.3749 63.91 57.3154 61.7667 58.9748 60.3023C60.8701 58.6293 64.1973 57.6095 68.8958 60.037L74.0858 43.402L66.7904 41.1264L63.7505 50.8705C63.7505 50.8705 52.694 50.3231 49.1763 61.5989C45.8106 72.387 54.7034 77.9111 58.8448 79.2031C62.0117 80.1912 73.0387 82.7911 76.9601 69.7327Z" fill="#DA671D"/>
<path d="M67.7726 37.673L75.1763 39.9827L77.3333 33.0683L69.9296 30.7586L67.7726 37.673Z" fill="#DA671D"/>
<path d="M97.3229 50.9506L100.277 50.1712C100.277 50.1712 99.6226 47.6908 102.189 46.9657C103.522 46.5893 104.447 47.2833 104.907 47.8805C105.44 48.5745 105.576 49.49 105.328 50.3292C105.045 51.2878 104.145 52.3281 102.061 52.5027L103.818 59.1646L106.74 58.3942L105.711 54.4917C105.711 54.4917 109.528 52.3515 108.338 47.8367C107.198 43.5161 103.059 43.535 101.401 43.9727C100.131 44.3069 95.8925 45.7539 97.3229 50.9506Z" fill="#DA671D"/>
<path d="M107.136 59.7515L104.171 60.5337L104.902 63.3027L107.867 62.5204L107.136 59.7515Z" fill="#DA671D"/>
<path d="M341.367 127.466L344.239 128.507C344.239 128.507 345.113 126.095 347.635 126.96C348.945 127.409 349.311 128.507 349.349 129.259C349.393 130.133 348.983 130.963 348.301 131.512C347.523 132.139 346.191 132.482 344.378 131.44L342.032 137.917L344.872 138.946L346.247 135.152C346.247 135.152 350.603 135.565 352.194 131.174C353.716 126.973 350.302 124.633 348.689 124.049C347.458 123.602 343.148 122.378 341.367 127.466Z" fill="#DA671D"/>
<path d="M344.424 140.288L341.541 139.243L340.566 141.936L343.449 142.98L344.424 140.288Z" fill="#DA671D"/>
<path d="M36.4808 160.37L42.5606 158.027C42.5606 158.027 40.5942 152.922 45.8635 150.787C48.6002 149.678 50.7246 150.932 51.8374 152.092C53.1302 153.438 53.6307 155.347 53.3018 157.183C52.9253 159.281 51.2614 161.696 46.8856 162.553L52.167 176.261L58.1788 173.945L55.0852 165.915C55.0852 165.915 62.677 160.487 59.0973 151.195C55.6719 142.304 46.9038 143.31 43.4912 144.626C40.8815 145.632 32.2344 149.688 36.4808 160.37Z" fill="#DA671D"/>
<path d="M59.3379 176.733L53.2367 179.084L55.4321 184.782L61.5334 182.432L59.3379 176.733Z" fill="#DA671D"/>
<path d="M343.731 183.435L339.422 185.095C339.422 185.095 340.816 188.713 337.082 190.226C335.142 191.012 333.637 190.123 332.848 189.302C331.932 188.348 331.577 186.995 331.811 185.694C332.078 184.208 333.257 182.495 336.357 181.888L332.615 172.174L328.355 173.815L330.548 179.505C330.548 179.505 325.167 183.352 327.704 189.937C330.131 196.237 336.345 195.524 338.764 194.592C340.612 193.878 346.74 191.004 343.731 183.435Z" fill="#DA671D"/>
<path d="M327.547 171.843L331.87 170.178L330.315 166.14L325.991 167.806L327.547 171.843Z" fill="#DA671D"/>
<path d="M355.903 350.612C355.903 350.72 281.171 350.808 189.008 350.808C96.811 350.808 22.0963 350.72 22.0963 350.612C22.0963 350.504 96.811 350.415 189.008 350.415C281.172 350.414 355.903 350.503 355.903 350.612Z" fill="#263238"/>
<path d="M70.0336 330.978C70.7511 328.198 68.9283 325.406 66.8849 323.389C64.8414 321.372 62.398 319.564 61.3351 316.898C59.6129 312.577 61.9285 306.982 58.9892 303.377C57.2602 301.255 54.1591 300.546 52.6252 298.281C51.8201 297.092 51.56 295.632 51.244 294.231C49.6307 287.09 46.0563 280.402 41.0161 275.093C40.6653 281.452 42.0684 287.899 45.0289 293.538C46.2189 295.805 47.681 298.014 48.0756 300.544C48.7159 304.652 46.423 308.883 47.4322 312.917C48.5859 317.529 53.7675 320.617 54.0132 325.365C54.2211 329.379 50.7224 332.903 50.9832 336.914C51.0943 338.622 51.8874 340.208 52.7696 341.675C55.8737 346.835 60.4332 350.389 67.3445 350.274L75.8095 350.57L70.0336 330.978Z" fill="#DA671D"/>
<g opacity="0.3">
<path d="M70.0336 330.978C70.7511 328.198 68.9283 325.406 66.8849 323.389C64.8414 321.372 62.398 319.564 61.3351 316.898C59.6129 312.577 61.9285 306.982 58.9892 303.377C57.2602 301.255 54.1591 300.546 52.6252 298.281C51.8201 297.092 51.56 295.632 51.244 294.231C49.6307 287.09 46.0563 280.402 41.0161 275.093C40.6653 281.452 42.0684 287.899 45.0289 293.538C46.2189 295.805 47.681 298.014 48.0756 300.544C48.7159 304.652 46.423 308.883 47.4322 312.917C48.5859 317.529 53.7675 320.617 54.0132 325.365C54.2211 329.379 50.7224 332.903 50.9832 336.914C51.0943 338.622 51.8874 340.208 52.7696 341.675C55.8737 346.835 60.4332 350.389 67.3445 350.274L75.8095 350.57L70.0336 330.978Z" fill="black"/>
</g>
<path d="M77.5226 350.793C77.5226 350.793 78.33 350.981 79.8534 350.742C80.6124 350.631 81.546 350.43 82.6044 350.05C83.6568 349.665 84.8543 349.117 86.0019 348.189C86.553 347.708 87.1034 347.114 87.399 346.327C87.6908 345.544 87.7437 344.682 87.7974 343.799C87.8428 342.913 87.8435 341.992 87.9947 341.06C88.1376 340.128 88.5035 339.213 89.0289 338.338C90.0276 336.585 91.684 334.925 92.22 332.544C92.7991 330.203 92.3841 327.669 91.9902 325.124C91.5971 322.585 91.2168 319.817 92.1875 317.171C93.0955 314.524 94.9522 312.134 95.8798 309.15C96.8036 306.135 96.3735 302.893 96.5685 299.695C96.6577 298.089 96.9684 296.483 97.6715 294.995C98.3565 293.497 99.3068 292.084 100.048 290.506C101.551 287.317 101.816 283.703 102.227 280.16C102.428 278.375 102.63 276.572 102.834 274.751C103.036 272.921 103.199 271.099 103.775 269.337C104.296 267.563 105.052 265.847 105.8 264.098C106.166 263.219 106.554 262.339 106.782 261.362C106.948 260.364 106.995 259.43 107.055 258.451C107.15 256.51 107.07 254.543 106.83 252.591C106.6 250.637 106.248 248.701 106.037 246.743C106.025 246.627 106.012 246.511 106 246.405L105.956 246.014L105.609 246.188C103.796 247.096 102.244 248.447 101.052 250.033C99.839 251.609 98.9567 253.386 98.2514 255.193C96.8377 258.83 96.3281 262.642 95.6152 266.278C94.9189 269.915 94.0019 273.494 92.1368 276.517C91.2092 278.024 90.0866 279.401 89.1045 280.871C88.1248 282.331 87.2629 283.935 87.0036 285.696C86.5031 289.277 88.4755 292.422 88.065 295.593C87.9184 297.168 87.2916 298.642 86.5205 299.986C85.7517 301.339 84.8482 302.593 83.9909 303.854C83.1344 305.114 82.3187 306.392 81.7184 307.759C81.1076 309.122 80.7711 310.578 80.6782 312.003C80.4718 314.857 80.877 317.565 80.6676 320.122C80.496 322.683 79.5963 325.004 78.5787 327.08C77.5551 329.162 76.4158 331.046 75.4618 332.872C74.9817 333.785 74.5394 334.675 74.1788 335.569C73.797 336.462 73.6096 337.376 73.4357 338.246C73.1575 340.001 73.1847 341.636 73.3729 343.078C73.7411 345.978 74.8222 348.066 75.7952 349.239C76.0182 349.552 76.2767 349.774 76.4801 349.981C76.6789 350.195 76.8755 350.339 77.0357 350.453C77.354 350.686 77.5226 350.793 77.5226 350.793C77.5597 350.75 76.8256 350.361 75.8836 349.172C74.9515 347.992 73.9172 345.919 73.5854 343.052C73.4153 341.627 73.4054 340.012 73.6935 338.29C73.8719 337.438 74.0632 336.542 74.4419 335.676C74.8018 334.803 75.2493 333.916 75.7332 333.014C76.6948 331.204 77.8462 329.329 78.8917 327.232C79.9297 325.147 80.8641 322.779 81.0539 320.152C81.2761 317.541 80.883 314.823 81.0992 312.036C81.1968 310.642 81.5241 309.252 82.1198 307.935C82.7065 306.612 83.5101 305.358 84.3667 304.107C85.2232 302.855 86.1372 301.596 86.928 300.215C87.7188 298.844 88.3826 297.31 88.5436 295.642C88.9518 292.264 86.9938 289.098 87.5026 285.77C87.7468 284.123 88.5655 282.588 89.5324 281.155C90.4986 279.712 91.6273 278.334 92.5829 276.788C94.5069 273.678 95.4391 270.032 96.1421 266.38C96.8618 262.72 97.3714 258.949 98.7602 255.387C99.4511 253.616 100.315 251.883 101.486 250.362C102.639 248.83 104.125 247.541 105.851 246.674L105.461 246.458C105.473 246.566 105.486 246.683 105.5 246.8C105.712 248.781 106.066 250.721 106.294 252.652C106.532 254.582 106.61 256.51 106.518 258.423C106.463 259.366 106.406 260.357 106.258 261.246C106.051 262.137 105.672 263.015 105.309 263.886C104.565 265.627 103.8 267.369 103.268 269.182C102.68 270.986 102.511 272.877 102.315 274.686C102.113 276.509 101.913 278.313 101.715 280.099C101.31 283.656 101.045 287.212 99.5978 290.291C98.8826 291.824 97.9339 293.241 97.2293 294.789C96.502 296.333 96.1792 298.03 96.0945 299.663C95.91 302.929 96.3349 306.123 95.4512 309.017C94.5734 311.897 92.7273 314.299 91.7936 317.031C90.7949 319.791 91.2085 322.649 91.6122 325.181C92.0212 327.729 92.4317 330.21 91.8859 332.461C91.3967 334.735 89.7872 336.379 88.7681 338.183C88.2382 339.078 87.8579 340.047 87.718 341.014C87.5698 341.978 87.5774 342.908 87.5404 343.786C87.4965 344.657 87.4466 345.513 87.179 346.246C86.9129 346.978 86.395 347.555 85.8658 348.028C84.7606 348.942 83.5842 349.502 82.55 349.898C81.509 350.29 80.5874 350.507 79.8382 350.634C79.0883 350.77 78.5062 350.789 78.1161 350.8C77.7245 350.786 77.5226 350.793 77.5226 350.793Z" fill="#263238"/>
<path d="M104.27 251.065C104.261 251.063 104.233 251.15 104.188 251.321C104.138 251.523 104.077 251.774 104.001 252.083C103.835 252.75 103.636 253.756 103.317 255.014C102.985 256.267 102.217 257.686 101.56 259.435C100.878 261.17 100.185 263.18 99.5486 265.44C98.903 267.697 98.3307 270.204 97.7327 272.89C97.1158 275.57 96.4997 278.445 95.0232 281.157C94.3292 282.532 93.5483 283.924 92.9276 285.447C92.2918 286.969 91.9486 288.634 91.7089 290.304C91.3022 293.658 90.6868 297.063 89.8839 300.546C88.1867 307.483 86.5696 314.09 85.0977 320.106C83.5902 326.102 82.2317 331.505 81.0864 336.059C79.972 340.573 79.0663 344.24 78.4275 346.826C78.1334 348.068 77.9006 349.047 77.7312 349.76C77.6632 350.071 77.608 350.323 77.5634 350.527C77.5286 350.701 77.515 350.79 77.5241 350.793C77.5332 350.795 77.5649 350.71 77.6171 350.541C77.6753 350.341 77.7479 350.094 77.8371 349.788C78.0299 349.081 78.296 348.11 78.6324 346.879C79.3113 344.303 80.2737 340.651 81.4583 336.155C82.6362 331.609 84.0325 326.216 85.5831 320.231C87.0694 314.213 88.7008 307.604 90.4147 300.665C91.2183 297.186 91.8397 293.718 92.2366 290.381C92.4717 288.722 92.7991 287.117 93.4099 285.641C94.0079 284.157 94.7775 282.773 95.4715 281.382C96.9609 278.62 97.5808 275.657 98.1742 272.988C98.7533 270.296 99.3022 267.796 99.9206 265.543C100.531 263.288 101.194 261.281 101.846 259.545C102.469 257.801 103.212 256.366 103.524 255.07C103.817 253.782 103.978 252.785 104.111 252.106C104.166 251.793 104.209 251.539 104.245 251.333C104.27 251.158 104.279 251.067 104.27 251.065Z" fill="#263238"/>
<path d="M79.0164 350.819C84.5458 347.532 86.1327 337.556 83.8261 331.551C81.5195 325.546 77.4825 320.06 76.8596 313.658C76.381 308.737 77.9928 303.686 76.8467 298.876C75.2999 292.385 68.9624 287.356 69.035 280.684C69.0758 276.94 71.2062 273.417 71.0361 269.677C70.8282 265.088 67.3067 261.449 65.1257 257.407C61.7872 251.221 61.568 243.907 60.4264 236.97C59.2848 230.034 56.6419 222.606 50.4941 219.197C49.5861 225.085 48.0363 229.119 48.5232 237.097C48.6978 239.962 52.0265 245.447 52.4793 251.726C52.75 255.479 52.9375 259.238 53.1665 262.993C53.3895 266.649 53.6262 270.37 54.9363 273.789C55.9403 276.409 57.5536 278.79 58.299 281.495C59.7014 286.584 57.859 292.096 58.9915 297.253C59.9509 301.621 62.9741 305.381 63.5918 309.811C64.4597 316.035 60.4317 322.502 62.4933 328.438C63.5169 331.384 65.9399 333.749 66.6271 336.791C67.1608 339.151 66.5787 341.65 67.0626 344.021C67.8412 347.841 75.1268 350.807 79.0179 350.571" fill="#DA671D"/>
<path d="M52.0182 225.042C52.0091 225.044 52.0175 225.156 52.0424 225.375C52.0742 225.622 52.1157 225.941 52.1671 226.343C52.2942 227.193 52.4363 228.442 52.7243 230.057C53.0335 231.681 53.8697 233.509 54.5387 235.713C55.2441 237.911 55.9464 240.447 56.5663 243.285C57.1976 246.122 57.7253 249.262 58.2794 252.641C58.8525 255.995 59.4376 259.702 61.1136 263.22C61.8893 264.988 62.7595 266.757 63.4126 268.642C64.0817 270.519 64.3902 272.539 64.5791 274.616C64.8649 278.788 65.4206 283.126 66.2008 287.497C67.8942 296.223 69.5075 304.533 70.9757 312.098C72.5232 319.633 73.9173 326.421 75.0913 332.136C76.2767 337.809 77.2384 342.411 77.912 345.635C78.2507 347.198 78.5168 348.426 78.7058 349.3C78.7972 349.694 78.8698 350.008 78.9258 350.25C78.9779 350.463 79.0097 350.572 79.0188 350.57C79.0278 350.568 79.015 350.456 78.9802 350.239C78.9371 349.993 78.8819 349.676 78.8131 349.278C78.6476 348.4 78.4155 347.165 78.1191 345.593C77.4863 342.361 76.5822 337.747 75.4678 332.059C74.3263 326.338 72.9715 319.542 71.4671 311.998C70.0125 304.436 68.4151 296.127 66.7368 287.405C65.9566 283.029 65.4047 278.755 65.1099 274.566C64.9171 272.478 64.5958 270.397 63.904 268.471C63.2312 266.547 62.349 264.77 61.5725 263.018C59.9056 259.551 59.3204 255.932 58.7239 252.565C58.1509 249.192 57.599 246.043 56.942 243.2C56.2949 240.355 55.5639 237.815 54.8283 235.618C54.1259 233.406 53.2633 231.594 52.9315 230.011C52.6162 228.426 52.437 227.164 52.276 226.325C52.2027 225.928 52.1437 225.612 52.0984 225.366C52.0545 225.15 52.028 225.041 52.0182 225.042Z" fill="#263238"/>
<path d="M318.634 67.1124H315.625C315.625 67.1124 315.625 69.6389 312.998 69.6843C311.635 69.7077 310.928 68.8141 310.64 68.13C310.307 67.3354 310.408 66.4297 310.855 65.6926C311.365 64.8512 312.484 64.0861 314.513 64.4437V57.6579H311.537V61.6329C311.537 61.6329 307.363 62.7117 307.363 67.3112C307.363 71.7119 311.309 72.734 312.999 72.734C314.29 72.734 318.691 72.4218 318.634 67.1124Z" fill="#DA671D"/>
<path d="M311.5 56.2606H314.52V53.44H311.5V56.2606Z" fill="#DA671D"/>
<path d="M335.117 63.0852C335.125 63.0852 335.127 62.9566 335.123 62.7041C335.115 62.4274 335.105 62.057 335.091 61.5853C335.08 61.3396 335.08 61.0629 335.055 60.7605C335.012 60.4573 334.966 60.1285 334.916 59.7731C334.865 59.4148 334.81 59.0307 334.751 58.621C334.651 58.2165 334.544 57.7879 334.432 57.3343C333.967 55.5259 333.172 53.335 331.712 51.095C330.275 48.8565 328.22 46.5303 325.428 44.6425C322.632 42.7896 319.114 41.3608 315.164 40.982C314.175 40.945 313.169 40.8255 312.147 40.9208C311.637 40.9563 311.118 40.9457 310.604 41.0206C310.09 41.0977 309.572 41.1763 309.051 41.2549C306.99 41.676 304.878 42.2891 302.911 43.3513C300.94 44.3885 299.064 45.7267 297.394 47.3611C295.757 49.0273 294.337 50.9725 293.243 53.1385C292.14 55.2976 291.378 57.6903 291.082 60.1806C290.959 60.7975 290.96 61.4288 290.922 62.0585C290.881 62.689 290.858 63.3218 290.888 63.9576C290.939 65.2277 291.099 66.5015 291.368 67.7603C291.95 70.4955 293.063 73.0704 294.553 75.3316L294.53 75.1018C293.477 77.7259 292.443 80.3008 291.435 82.8137L291.252 83.2704L291.726 83.1403C294.556 82.3624 297.308 81.6057 299.97 80.8738L299.767 80.8345C302.643 82.999 305.927 84.3779 309.188 84.9494C310.817 85.236 312.443 85.3577 314.014 85.2496C314.802 85.2163 315.578 85.1785 316.332 85.0303C316.711 84.9714 317.087 84.9132 317.46 84.8549C317.831 84.7861 318.191 84.6727 318.552 84.5851C324.355 83.095 328.642 79.5206 331.095 75.981C332.343 74.209 333.238 72.4611 333.796 70.8606C333.939 70.4615 334.076 70.0774 334.209 69.707C334.305 69.3267 334.398 68.9616 334.487 68.6123C334.573 68.263 334.656 67.9289 334.735 67.6106C334.797 67.2893 334.829 66.9793 334.874 66.689C334.948 66.1061 335.049 65.5936 335.071 65.1445C335.086 64.703 335.098 64.3258 335.108 64.0113C335.114 63.724 335.12 63.4964 335.123 63.3195C335.126 63.1645 335.123 63.0852 335.117 63.0852C335.11 63.0852 335.099 63.1638 335.085 63.3188C335.071 63.4949 335.053 63.7225 335.03 64.0082C335.009 64.3205 334.984 64.6954 334.954 65.1339C334.919 65.5792 334.807 66.0865 334.722 66.6641C334.306 68.9336 333.401 72.3363 330.86 75.8124C328.406 79.2832 324.16 82.7669 318.455 84.2002C318.1 84.2842 317.747 84.3945 317.382 84.4596C317.016 84.5147 316.646 84.5699 316.274 84.6259C315.533 84.768 314.771 84.8005 313.998 84.83C312.456 84.9298 310.861 84.8043 309.266 84.5178C306.073 83.9462 302.862 82.5854 300.05 80.4588L299.958 80.3893L299.846 80.4195C297.183 81.146 294.429 81.8975 291.598 82.6693L291.888 82.9952C292.899 80.483 293.936 77.9096 294.992 75.287L295.04 75.166L294.969 75.0564C293.513 72.8444 292.426 70.3269 291.857 67.6544C291.594 66.4244 291.437 65.1785 291.387 63.9372C291.357 63.3157 291.38 62.6966 291.42 62.0804C291.457 61.4643 291.455 60.8467 291.575 60.2441C291.863 57.809 292.605 55.47 293.681 53.3577C294.749 51.2387 296.134 49.3328 297.731 47.6991C299.362 46.0971 301.196 44.7824 303.123 43.7611C305.045 42.7147 307.111 42.1084 309.13 41.6873C309.641 41.6087 310.149 41.5301 310.652 41.4522C311.157 41.3766 311.666 41.3857 312.165 41.3487C313.168 41.2496 314.155 41.3645 315.126 41.3955C319.004 41.7493 322.467 43.1328 325.231 44.9366C327.991 46.776 330.036 49.0508 331.477 51.247C332.941 53.4439 333.754 55.6 334.243 57.3849C334.363 57.8332 334.476 58.2566 334.582 58.6558C334.649 59.061 334.711 59.4412 334.769 59.7958C334.827 60.1474 334.881 60.4739 334.93 60.7741C334.963 61.0742 334.971 61.3486 334.99 61.5928C335.024 62.0631 335.052 62.4312 335.071 62.7064C335.092 62.9566 335.108 63.0852 335.117 63.0852Z" fill="#263238"/>
<path d="M109.671 152.246H153.332C153.332 152.246 153.332 115.587 191.429 114.931C211.214 114.59 221.473 127.55 225.641 137.479C230.481 149.009 229.017 162.15 222.532 172.841C215.126 185.051 199.177 197.32 169.752 192.136L169.474 289.41H212.646V231.743C212.646 231.743 273.196 216.091 273.196 149.363C273.196 85.518 221.566 71.7263 193.819 70.8402C178.379 70.3473 172.782 69.6835 153.686 72.3946C129.35 75.8495 109.156 104.106 109.671 152.246Z" fill="#DA671D"/>
<path d="M213.168 309.69H169.353V350.612H213.168V309.69Z" fill="#DA671D"/>
<path opacity="0.1" d="M213.168 309.69H169.353V350.612H213.168V309.69Z" fill="black"/>
<path opacity="0.1" d="M109.671 152.246H153.332C153.332 152.246 153.332 115.587 191.429 114.931C211.214 114.59 221.473 127.55 225.641 137.479C230.481 149.009 229.017 162.15 222.532 172.841C215.126 185.051 199.177 197.32 169.752 192.136L169.474 289.41H212.646V231.743C212.646 231.743 273.196 216.091 273.196 149.363C273.196 85.518 221.566 71.7263 193.819 70.8402C178.379 70.3473 172.782 69.6835 153.686 72.3946C129.35 75.8495 109.156 104.106 109.671 152.246Z" fill="black"/>
<path d="M91.5848 152.246H135.246C135.246 152.246 135.246 115.587 173.343 114.931C193.128 114.59 203.387 127.55 207.555 137.479C212.395 149.009 210.931 162.15 204.446 172.841C197.04 185.051 180.812 196.149 151.388 190.965V289.409H194.56V231.743C194.56 231.743 255.11 216.09 255.11 149.362C255.11 85.5172 197.856 70.689 173.348 70.689C154.606 70.6905 90.7615 75.2212 91.5848 152.246Z" fill="#DA671D"/>
<path opacity="0.3" d="M91.5848 152.246H135.246C135.246 152.246 135.246 115.587 173.343 114.931C193.128 114.59 203.387 127.55 207.555 137.479C212.395 149.009 210.931 162.15 204.446 172.841C197.04 185.051 180.812 196.149 151.388 190.965V289.409H194.56V231.743C194.56 231.743 255.11 216.09 255.11 149.362C255.11 85.5172 197.856 70.689 173.348 70.689C154.606 70.6905 90.7615 75.2212 91.5848 152.246Z" fill="#DA671D"/>
<path d="M195.082 309.69H151.267V350.612H195.082V309.69Z" fill="#DA671D"/>
<path opacity="0.3" d="M195.082 309.69H151.267V350.612H195.082V309.69Z" fill="#DA671D"/>
<path d="M178.275 115.134C178.272 115.148 178.047 115.134 177.621 115.094C177.194 115.072 176.573 114.952 175.761 114.943C174.144 114.836 171.79 114.877 168.915 115.227C166.042 115.587 162.65 116.299 159.031 117.552C157.233 118.201 155.362 118.945 153.525 119.92C151.671 120.86 149.836 122.01 148.14 123.408C146.433 124.791 144.99 126.406 143.732 128.065C142.47 129.718 141.376 131.407 140.429 133.07C138.572 136.417 137.304 139.647 136.519 142.433C135.716 145.217 135.365 147.545 135.206 149.157C135.113 149.962 135.089 150.591 135.066 151.019C135.041 151.445 135.022 151.669 135.008 151.669C134.994 151.669 134.987 151.445 134.987 151.016C134.984 150.588 134.983 149.955 135.053 149.143C135.166 147.52 135.477 145.169 136.251 142.357C137.007 139.542 138.257 136.278 140.112 132.892C141.059 131.211 142.155 129.503 143.426 127.83C144.688 126.156 146.151 124.514 147.889 123.103C149.614 121.683 151.473 120.522 153.347 119.577C155.207 118.597 157.096 117.853 158.912 117.209C162.564 115.964 165.987 115.277 168.88 114.951C171.777 114.635 174.148 114.635 175.77 114.79C176.584 114.823 177.206 114.968 177.631 115.016C178.055 115.081 178.277 115.121 178.275 115.134Z" fill="#263238"/>
<path d="M244.059 107.339C244.053 107.343 244.005 107.285 243.917 107.168C243.817 107.031 243.691 106.858 243.534 106.642C243.189 106.153 242.708 105.47 242.098 104.603C241.783 104.163 241.454 103.658 241.057 103.134C240.637 102.624 240.182 102.072 239.694 101.48C239.205 100.885 238.684 100.251 238.132 99.578C237.562 98.9188 236.9 98.2755 236.239 97.5709C235.561 96.8806 234.888 96.1216 234.12 95.3974C233.337 94.689 232.522 93.9527 231.679 93.1906C231.254 92.8141 230.838 92.4112 230.385 92.0369C229.923 91.6733 229.454 91.3044 228.978 90.9294C228.019 90.1908 227.065 89.3841 226.026 88.6402C221.883 85.6389 217.036 82.754 211.72 80.1912C210.375 79.5826 209.046 78.9816 207.736 78.3896C206.395 77.8695 205.076 77.3569 203.777 76.8534C202.491 76.3197 201.175 75.9402 199.904 75.5206C198.625 75.1237 197.394 74.6641 196.147 74.373C194.91 74.0479 193.704 73.7312 192.531 73.4227C191.359 73.112 190.195 72.9283 189.084 72.6856C187.966 72.477 186.899 72.1988 185.85 72.068C184.806 71.9168 183.802 71.7716 182.844 71.6333C180.933 71.3059 179.18 71.2409 177.65 71.0867C176.884 71.0262 176.171 70.9446 175.514 70.9136C174.857 70.8962 174.256 70.8795 173.712 70.8652C172.651 70.8312 171.817 70.8039 171.218 70.785C170.951 70.7722 170.737 70.7624 170.569 70.754C170.423 70.745 170.348 70.7367 170.348 70.7298C170.348 70.723 170.423 70.7178 170.569 70.714C170.737 70.7117 170.951 70.7094 171.218 70.7057C171.818 70.7072 172.653 70.7094 173.716 70.7117C174.261 70.7162 174.864 70.7208 175.522 70.7261C176.182 70.7457 176.896 70.8168 177.665 70.8667C179.201 71.0005 180.961 71.0466 182.879 71.3566C183.841 71.4874 184.849 71.625 185.898 71.7678C186.951 71.8911 188.023 72.1625 189.147 72.3651C190.263 72.6017 191.433 72.7794 192.611 73.0855C193.788 73.3895 195.001 73.7024 196.244 74.023C197.497 74.311 198.734 74.7676 200.019 75.1623C201.296 75.5803 202.618 75.9583 203.911 76.4913C205.215 76.9948 206.541 77.5074 207.888 78.0283C209.203 78.6225 210.538 79.225 211.889 79.8359C217.227 82.4093 222.09 85.3169 226.24 88.3477C227.281 89.0991 228.235 89.9133 229.195 90.6603C229.67 91.039 230.14 91.4125 230.601 91.7799C231.054 92.1579 231.47 92.5654 231.895 92.9464C232.736 93.7175 233.549 94.463 234.331 95.1796C235.096 95.913 235.767 96.6818 236.44 97.3804C237.098 98.0948 237.757 98.7465 238.32 99.4148C238.866 100.097 239.382 100.74 239.865 101.343C240.345 101.944 240.793 102.505 241.207 103.022C241.596 103.555 241.917 104.069 242.222 104.517C242.809 105.404 243.27 106.102 243.601 106.601C243.744 106.827 243.86 107.007 243.951 107.148C244.028 107.27 244.064 107.336 244.059 107.339Z" fill="#263238"/>
<path d="M239.51 201.079C239.52 201.088 239.406 201.243 239.179 201.533C238.925 201.849 238.591 202.266 238.172 202.786C237.736 203.331 237.191 203.988 236.524 204.723C235.862 205.46 235.13 206.321 234.251 207.209C233.391 208.114 232.442 209.099 231.371 210.105C230.33 211.142 229.149 212.175 227.92 213.278C225.419 215.434 222.569 217.693 219.437 219.867C216.29 222.022 213.166 223.883 210.26 225.454C208.792 226.211 207.406 226.947 206.067 227.552C204.746 228.195 203.487 228.731 202.336 229.214C201.194 229.72 200.128 230.097 199.204 230.454C198.281 230.816 197.472 231.092 196.808 231.306C196.174 231.511 195.666 231.676 195.279 231.802C194.929 231.911 194.743 231.962 194.738 231.949C194.733 231.936 194.911 231.86 195.254 231.727C195.633 231.584 196.132 231.396 196.756 231.162C197.411 230.926 198.21 230.631 199.124 230.25C200.039 229.874 201.094 229.479 202.226 228.959C203.368 228.462 204.615 227.912 205.926 227.259C207.255 226.644 208.63 225.899 210.088 225.136C212.973 223.553 216.079 221.692 219.213 219.545C222.333 217.379 225.177 215.139 227.682 213.006C228.914 211.915 230.099 210.895 231.146 209.872C232.223 208.879 233.18 207.908 234.051 207.019C234.94 206.146 235.684 205.299 236.36 204.578C237.041 203.86 237.602 203.218 238.055 202.689C238.496 202.189 238.85 201.789 239.117 201.485C239.365 201.209 239.499 201.07 239.51 201.079Z" fill="#263238"/>
<path d="M193.797 285.982C193.688 285.982 193.6 273.838 193.6 258.862C193.6 243.88 193.689 231.74 193.797 231.74C193.906 231.74 193.993 243.88 193.993 258.862C193.993 273.838 193.906 285.982 193.797 285.982Z" fill="#263238"/>
<path d="M195.462 347.836C195.353 347.836 195.266 339.315 195.266 328.805C195.266 318.292 195.354 309.772 195.462 309.772C195.571 309.772 195.659 318.292 195.659 328.805C195.659 339.315 195.57 347.836 195.462 347.836Z" fill="#263238"/>
<path d="M238.442 146.444C237.679 147.967 240.504 149.194 242.134 149.686C243.764 150.179 245.503 150.128 247.203 150.036C249.456 149.914 251.79 149.704 253.75 148.585C255.491 147.591 256.789 145.947 257.696 144.159C258.603 142.371 259.154 140.427 259.7 138.498C259.7 138.498 241.838 139.667 238.442 146.444Z" fill="#DA671D"/>
<g opacity="0.4">
<path d="M238.442 146.444C237.679 147.967 240.504 149.194 242.134 149.686C243.764 150.179 245.503 150.128 247.203 150.036C249.456 149.914 251.79 149.704 253.75 148.585C255.491 147.591 256.789 145.947 257.696 144.159C258.603 142.371 259.154 140.427 259.7 138.498C259.7 138.498 241.838 139.667 238.442 146.444Z" fill="black"/>
</g>
<path d="M288.901 141.603C291.815 143.686 295.402 144.812 298.983 144.769C300.699 144.748 302.517 144.416 303.784 143.259C304.367 142.727 304.802 142.046 305.402 141.532C305.81 141.185 306.286 140.92 306.669 140.546C307.052 140.171 307.341 139.635 307.226 139.112C307.108 138.576 306.659 137.713 306.182 137.442C304.13 136.278 301.683 136.32 299.325 136.374C296.967 136.429 294.643 136.978 292.407 137.73C290.579 138.346 288.663 139.214 287.735 140.906" fill="#DA671D"/>
<g opacity="0.4">
<path d="M307.226 139.111C307.108 138.575 306.362 137.862 305.885 137.592C303.833 136.428 301.683 136.319 299.325 136.374C296.967 136.428 294.643 136.978 292.407 137.73C290.579 138.346 288.663 139.213 287.735 140.905L288.901 141.604C291.815 143.686 295.402 144.812 298.983 144.769C300.699 144.749 302.517 144.417 303.783 143.26C304.366 142.727 304.801 142.046 305.401 141.533C305.809 141.185 306.285 140.92 306.668 140.546C307.052 140.171 307.34 139.634 307.226 139.111Z" fill="black"/>
</g>
<path d="M254.031 168.741L291.718 169.235C292.05 169.24 292.287 168.918 292.186 168.603L287.765 154.814C287.765 154.814 288.416 147.924 289.317 139.631C290.683 127.047 292.501 111.226 292.524 111.269C289.951 104.045 274.741 102.813 274.741 102.813L257.405 103.844L256.795 102.827L251.806 105.146C250.718 105.653 249.674 106.243 248.676 106.911C245.385 109.117 237.441 114.169 235.994 119.806C232.647 132.841 238.316 147.395 238.316 147.395L241.955 144.551C242.906 143.829 243.81 143.208 244.843 142.621L252.146 162.19C252.146 162.19 250.626 163.116 250.562 164.702C250.498 166.287 251.349 168.199 254.031 168.741Z" fill="#DA671D"/>
<g opacity="0.3">
<path d="M270.187 145.667C271.382 139.242 270.751 132.636 270.115 126.133C268.022 131.453 268.099 137.45 265.884 142.721C265.646 143.289 265.378 143.856 265.295 144.467C265.211 145.078 265.344 145.755 265.798 146.172C266.4 146.722 267.297 146.426 268.107 146.328C268.964 146.226 269.415 145.932 270.187 145.667Z" fill="black"/>
</g>
<g opacity="0.4">
<path d="M256.305 160.54C259.348 161.595 262.547 159.638 265.749 159.291C267.864 159.061 269.982 159.546 272.082 159.887C276.326 160.576 280.663 160.683 284.935 160.202C285.587 160.129 286.255 160.037 286.826 159.715C287.396 159.393 287.856 158.492 287.814 157.838C280.697 157.108 273.579 156.673 266.461 155.942C264.677 155.759 262.835 155.582 261.122 156.112C258.971 156.779 257.313 158.469 255.797 160.134" fill="black"/>
</g>
<path d="M306.138 136.621C303.056 129.693 292.208 110.52 292.208 110.52L283.806 121.053L285.767 141.73C285.767 141.73 290.203 136.778 302.608 136.68C305.499 136.657 307.225 139.111 307.225 139.111L306.138 136.621Z" fill="#DA671D"/>
<path d="M255.7 132.961C255.595 132.989 254.961 130.964 254.284 128.438C253.607 125.912 253.144 123.842 253.249 123.814C253.354 123.786 253.987 125.81 254.665 128.336C255.341 130.862 255.805 132.933 255.7 132.961Z" fill="#263238"/>
<path d="M283.172 119.651C283.191 119.632 283.466 119.867 283.949 120.312C284.421 120.768 285.088 121.448 285.821 122.369C287.288 124.185 289.082 127.025 289.832 130.579C290.208 132.345 290.269 134.089 290.073 135.643C289.878 137.19 289.582 138.55 289.392 139.702C289.192 140.851 289.075 141.786 289.014 142.436C288.955 143.084 288.939 143.446 288.909 143.446C288.886 143.447 288.849 143.084 288.862 142.427C288.875 141.77 288.952 140.819 289.118 139.659C289.274 138.498 289.542 137.126 289.714 135.601C289.885 134.083 289.815 132.386 289.448 130.661C288.717 127.191 286.997 124.38 285.602 122.541C284.203 120.677 283.114 119.709 283.172 119.651Z" fill="#263238"/>
<path d="M275.477 167.093C275.483 167.12 275.192 167.203 274.657 167.332C274.39 167.401 274.061 167.474 273.673 167.524C273.286 167.578 272.847 167.662 272.354 167.684C271.372 167.778 270.193 167.775 268.892 167.664C267.594 167.529 266.176 167.27 264.733 166.831C263.294 166.375 261.98 165.785 260.833 165.162C259.697 164.517 258.724 163.851 257.969 163.217C257.575 162.92 257.262 162.602 256.973 162.338C256.681 162.077 256.451 161.832 256.27 161.624C255.902 161.215 255.709 160.981 255.729 160.962C255.786 160.908 256.597 161.815 258.142 162.999C258.908 163.596 259.882 164.227 261.007 164.844C262.143 165.438 263.438 166.008 264.85 166.455C266.267 166.886 267.656 167.15 268.93 167.304C270.206 167.432 271.366 167.464 272.335 167.406C274.278 167.305 275.462 167.016 275.477 167.093Z" fill="#263238"/>
<path d="M287.116 162.782C287.161 162.772 287.309 163.185 287.407 163.885C287.497 164.581 287.516 165.586 287.204 166.641C286.904 167.7 286.274 168.531 285.723 168.982C285.17 169.442 284.745 169.587 284.726 169.549C284.693 169.492 285.06 169.262 285.532 168.779C286.005 168.301 286.545 167.519 286.826 166.528C287.399 164.531 286.968 162.791 287.116 162.782Z" fill="#263238"/>
<path d="M285.066 165.445C285.165 165.422 285.365 166.526 284.875 167.772C284.397 169.022 283.504 169.702 283.448 169.618C283.364 169.536 284.07 168.785 284.508 167.629C284.963 166.481 284.949 165.449 285.066 165.445Z" fill="#263238"/>
<path d="M278.318 140.569C278.399 140.651 277.7 141.44 276.974 142.504C276.242 143.565 275.756 144.5 275.652 144.455C275.555 144.418 275.892 143.38 276.65 142.281C277.401 141.18 278.249 140.493 278.318 140.569Z" fill="#263238"/>
<path d="M252.453 122.261C252.412 122.31 251.814 121.827 250.782 121.154C249.752 120.478 248.262 119.645 246.505 118.987C244.746 118.333 243.074 117.986 241.853 117.821C240.633 117.654 239.865 117.627 239.865 117.563C239.864 117.518 240.636 117.446 241.884 117.544C243.129 117.64 244.847 117.951 246.642 118.619C248.435 119.291 249.936 120.182 250.939 120.925C251.946 121.668 252.483 122.228 252.453 122.261Z" fill="#263238"/>
<path d="M292.213 110.269C292.285 110.372 290.247 111.617 288.394 113.843C286.516 116.05 285.638 118.271 285.523 118.216C285.478 118.199 285.639 117.624 286.05 116.75C286.458 115.877 287.143 114.72 288.093 113.589C289.045 112.46 290.068 111.589 290.858 111.038C291.648 110.485 292.189 110.229 292.213 110.269Z" fill="#263238"/>
<path d="M276.649 104.039C276.662 104.034 276.719 104.154 276.819 104.389C276.931 104.621 277.046 104.978 277.172 105.449C277.41 106.388 277.539 107.832 277.157 109.544C276.764 111.234 275.821 113.203 274.073 114.754C272.34 116.314 269.789 117.24 267.118 117.231C264.439 117.213 261.927 116.298 260.095 114.884C258.24 113.488 257.013 111.744 256.23 110.2C255.462 108.636 255.104 107.263 254.943 106.309C254.865 105.831 254.818 105.459 254.807 105.203C254.789 104.949 254.786 104.816 254.8 104.815C254.839 104.81 254.886 105.343 255.093 106.279C255.298 107.214 255.692 108.555 256.478 110.072C257.277 111.571 258.499 113.255 260.311 114.592C262.098 115.946 264.527 116.818 267.119 116.837C269.703 116.845 272.159 115.963 273.834 114.48C275.527 113.006 276.47 111.113 276.886 109.478C277.291 107.823 277.21 106.413 277.021 105.482C276.835 104.543 276.603 104.057 276.649 104.039Z" fill="#263238"/>
<g opacity="0.3">
<path d="M279.294 141.91C279.282 141.532 279.233 141.087 278.905 140.898C278.699 140.779 278.433 140.805 278.22 140.909C278.006 141.014 277.835 141.186 277.673 141.361C276.757 142.353 276.118 143.322 275.652 144.589L279.358 144.269C279.334 143.488 279.318 142.691 279.294 141.91Z" fill="black"/>
</g>
<g opacity="0.3">
<path d="M291.595 134.114C291.311 131.994 290.228 130.055 288.909 128.372C290.505 133.604 289.971 136.556 289.073 140.138L289.267 139.638C290.296 137.544 291.88 136.233 291.595 134.114Z" fill="black"/>
</g>
<path d="M284.193 309.853L281.932 343.763L267.189 343.59L264.868 308.336L284.193 309.853Z" fill="#FFBE9D"/>
<path d="M282.353 339.3L282.356 340.28C282.356 340.28 298.974 346.968 299.148 350.122L266.142 349.929L266.656 338.948C271.549 341.25 276.684 341.536 282.353 339.3Z" fill="#DA671D"/>
<path d="M269.977 342.479C269.337 342.65 268.891 343.366 269.035 344.012C269.18 344.658 269.903 345.118 270.547 344.958C271.189 344.798 271.751 343.955 271.535 343.329C271.319 342.703 270.439 342.21 269.854 342.519" fill="white"/>
<path d="M266.142 349.929L266.265 347.288L297.855 348.44C297.855 348.44 299.321 349.088 299.148 350.122L266.142 349.929Z" fill="#263238"/>
<path d="M282.471 340.373C282.465 340.534 281.658 340.602 280.862 341.116C280.053 341.609 279.64 342.305 279.492 342.24C279.344 342.208 279.59 341.246 280.564 340.641C281.534 340.028 282.507 340.226 282.471 340.373Z" fill="#263238"/>
<path d="M285.924 341.825C285.961 341.982 285.261 342.252 284.71 342.931C284.138 343.593 283.996 344.329 283.836 344.321C283.684 344.345 283.578 343.401 284.279 342.57C284.973 341.734 285.922 341.672 285.924 341.825Z" fill="#263238"/>
<path d="M287.867 345.98C287.72 346.014 287.501 345.208 287.92 344.327C288.332 343.443 289.094 343.1 289.162 343.235C289.252 343.368 288.76 343.839 288.427 344.567C288.077 345.286 288.027 345.965 287.867 345.98Z" fill="#263238"/>
<path d="M281.505 61.8816C282.355 59.761 281.325 57.1974 279.484 55.8442C277.643 54.491 275.191 54.1991 272.935 54.5567C270.678 54.9136 268.563 55.8555 266.477 56.7877C264.586 54.8871 261.596 54.1674 259.046 54.9997C256.497 55.8321 254.508 58.178 254.103 60.8285C252.478 60.4165 250.647 60.9714 249.524 62.2158C248.401 63.4601 248.037 65.3396 248.614 66.9135L258.833 70.503L269.993 90.1341C273.256 92.9184 278.592 92.8436 281.775 89.9678C284.958 87.0919 285.572 81.7909 283.131 78.2634C283.762 77.7123 284.279 77.047 284.699 76.3242C286.468 75.2311 287.852 73.5248 288.31 71.4873C289.282 67.1713 285.899 62.3964 281.505 61.8816Z" fill="#263238"/>
<path d="M274.74 102.812C274.106 99.6166 273.664 97.428 273.67 97.4507C273.67 97.4507 279.695 95.1048 279.28 86.6882C279.074 82.503 277.477 75.9039 275.996 70.5469C274.663 65.7251 270.168 60.4089 265.407 61.9459L251.01 68.9774C249.564 69.4439 249.311 70.8024 249.652 72.2834L249.675 73.0054L255.277 96.1828L257.643 106.542C258.69 110.949 262.928 113.829 267.412 113.179C272.373 112.462 275.717 107.73 274.74 102.812Z" fill="#FFBE9D"/>
<path d="M275.901 76.1466C276.036 76.6939 275.684 77.2602 275.114 77.4121C274.547 77.5633 273.975 77.2435 273.84 76.6962C273.705 76.1488 274.057 75.5818 274.625 75.4306C275.194 75.2787 275.765 75.5992 275.901 76.1466Z" fill="#263238"/>
<path d="M275.28 74.5371C275.179 74.7004 274.265 74.2808 273.141 74.5197C272.016 74.7419 271.312 75.4934 271.161 75.3815C271.089 75.3331 271.169 75.0594 271.474 74.723C271.772 74.3889 272.323 74.0086 273.023 73.865C273.724 73.7221 274.368 73.8559 274.761 74.0487C275.162 74.2407 275.331 74.463 275.28 74.5371Z" fill="#263238"/>
<path d="M264.961 78.6542C265.097 79.2016 264.744 79.7678 264.175 79.9198C263.607 80.071 263.036 79.7512 262.901 79.2038C262.765 78.6565 263.117 78.0895 263.685 77.9383C264.255 77.7863 264.826 78.1069 264.961 78.6542Z" fill="#263238"/>
<path d="M264.41 77.202C264.309 77.3653 263.394 76.9457 262.271 77.1846C261.146 77.4068 260.442 78.1583 260.292 78.0464C260.219 77.998 260.298 77.7251 260.604 77.3879C260.902 77.053 261.453 76.6735 262.154 76.5291C262.854 76.3862 263.498 76.5208 263.892 76.7128C264.292 76.9064 264.461 77.1279 264.41 77.202Z" fill="#263238"/>
<path d="M270.103 84.3129C270.084 84.2501 270.758 83.9825 271.86 83.6007C272.14 83.5108 272.4 83.3966 272.408 83.191C272.432 82.9695 272.247 82.6852 272.038 82.3806C271.622 81.7425 271.188 81.0742 270.731 80.3734C268.899 77.5089 267.509 75.129 267.625 75.0564C267.741 74.9839 269.32 77.2466 271.151 80.1111C271.596 80.8187 272.021 81.4938 272.426 82.1394C272.603 82.4426 272.868 82.7737 272.812 83.2348C272.779 83.4654 272.601 83.665 272.428 83.7535C272.255 83.848 272.095 83.885 271.954 83.9236C270.826 84.2222 270.121 84.3756 270.103 84.3129Z" fill="#263238"/>
<path d="M273.67 97.4514C273.67 97.4514 268.264 98.9543 262.151 96.83C262.151 96.83 266.109 102.001 274.101 99.5289L273.67 97.4514Z" fill="#EB996E"/>
<path d="M264.623 75.5992C264.548 75.9228 263.392 75.9145 262.074 76.2388C260.75 76.5367 259.718 77.0598 259.508 76.8036C259.412 76.6803 259.565 76.3658 259.964 76.0128C260.36 75.6605 261.015 75.2916 261.807 75.1041C262.6 74.9188 263.35 74.9566 263.861 75.095C264.376 75.2333 264.654 75.4465 264.623 75.5992Z" fill="#263238"/>
<path d="M274.854 70.9619C274.673 71.2659 273.701 71.1933 272.598 71.4125C271.487 71.5985 270.6 72.0105 270.328 71.789C270.207 71.6786 270.3 71.3929 270.657 71.0655C271.008 70.7404 271.638 70.4025 272.4 70.2634C273.161 70.1251 273.865 70.2188 274.303 70.4002C274.747 70.5794 274.93 70.816 274.854 70.9619Z" fill="#263238"/>
<path d="M254.551 63.563C254.883 65.1952 255.971 66.6573 257.439 67.445C258.907 68.2328 260.727 68.3295 262.271 67.7036C263.468 67.2175 264.702 66.3057 265.918 66.745C267.196 67.2076 267.597 68.9064 268.784 69.5701C270.479 70.5189 272.521 68.8754 274.456 69.0379C275.951 69.1634 277.11 70.3269 278.281 71.2651C279.451 72.2033 281.076 72.9895 282.398 72.2789C282.045 71.0315 281.688 69.7712 281.06 68.6372C280.431 67.5032 279.498 66.4909 278.29 66.0184C277.629 65.7599 276.904 65.6684 276.272 65.3441C274.907 64.6433 274.296 63.0564 273.3 61.8884C272.017 60.3832 269.972 59.5637 268.005 59.7663C266.368 59.9349 264.816 60.759 263.172 60.6886C261.956 60.6372 260.792 60.0967 259.576 60.1171C257.207 60.1564 255.427 62.2316 254.114 64.2025" fill="#263238"/>
<path d="M262.518 65.2934C261.436 65.2133 259.208 64.985 258.476 64.2131C256.887 62.5356 254.516 61.6563 252.397 62.2188C250.278 62.7805 248.571 64.9003 248.602 67.2553C246.011 67.8132 243.819 69.967 243.083 72.6765C242.346 75.3861 243.097 78.5424 244.971 80.6183C245.462 81.1619 246.212 82.4153 246.212 82.4153C246.212 82.4153 245.24 83.6287 244.866 84.4543C243.139 88.2789 247.828 89.744 247.828 89.744C247.841 92.3152 250.21 92.3031 251.731 92.2955C253.193 92.2879 254.093 96.3416 255.276 96.1844L254.074 83.6635C254.22 83.7217 254.399 83.7595 254.628 83.7633C257.494 83.8147 256.747 78.3927 255.818 76.9903C256.626 75.9054 257.443 74.8062 257.966 73.5316C258.49 72.2577 258.523 69.0735 258.078 67.7353C259.077 67.5887 262.993 65.3282 262.518 65.2934Z" fill="#263238"/>
<path d="M254.504 84.3258C254.058 82.6104 251.929 81.8446 250.606 83.0254C249.881 83.6733 249.448 84.7635 249.906 86.5885C251.127 91.4548 255.76 89.2261 255.734 89.084C255.717 88.9963 255.026 86.3352 254.504 84.3258Z" fill="#FFBE9D"/>
<path d="M253.785 87.6128C253.759 87.603 253.714 87.6937 253.588 87.795C253.464 87.8941 253.235 87.9984 252.958 87.9674C252.396 87.9077 251.758 87.2001 251.515 86.3284C251.392 85.8884 251.378 85.4439 251.448 85.0553C251.507 84.6622 251.675 84.3552 251.923 84.2449C252.165 84.1209 252.387 84.2297 252.481 84.3515C252.581 84.4709 252.574 84.576 252.602 84.5783C252.619 84.5873 252.686 84.4702 252.597 84.2796C252.552 84.1882 252.467 84.0876 252.329 84.0226C252.189 83.9568 252.005 83.9515 251.83 84.0166C251.461 84.1368 251.21 84.5662 251.133 84.9933C251.037 85.4273 251.041 85.9292 251.179 86.4237C251.457 87.3966 252.189 88.1882 252.943 88.2154C253.308 88.2192 253.568 88.0438 253.686 87.8918C253.805 87.7331 253.803 87.6174 253.785 87.6128Z" fill="#EB996E"/>
<path d="M280.608 77.5278C280.577 77.4907 281.048 77.1883 281.669 76.4286C282.277 75.6756 283.017 74.3934 283.189 72.6478C283.272 71.7852 283.229 70.8138 282.917 69.8446C282.606 68.8814 282.048 67.9122 281.189 67.1592C279.511 65.6336 276.732 64.9275 274.24 65.806C274.012 65.8793 273.801 65.9927 273.586 66.0819C273.379 66.1901 273.184 66.3118 272.992 66.4199L272.692 66.5885L272.688 66.2551C272.68 65.6692 272.46 65.1014 272.076 64.6667C271.696 64.229 271.204 63.8964 270.68 63.6688C269.618 63.2016 268.477 63.1933 267.434 63.4314C265.348 63.9054 263.577 64.8595 261.906 65.0515C260.25 65.2632 258.875 64.8519 258.135 64.294C257.752 64.0271 257.537 63.7293 257.395 63.538C257.274 63.3286 257.216 63.2175 257.227 63.2114C257.267 63.1797 257.47 63.6756 258.218 64.1738C258.95 64.6705 260.275 65.0243 261.869 64.7862C262.661 64.669 263.507 64.3862 264.408 64.0536C265.31 63.724 266.275 63.3286 267.359 63.0867C267.901 62.971 268.471 62.8856 269.068 62.9158C269.661 62.9468 270.259 63.0814 270.829 63.321C271.397 63.5645 271.939 63.9228 272.37 64.4157C272.805 64.9033 273.073 65.5724 273.079 66.2581L272.775 66.0933C272.981 65.9761 273.189 65.8468 273.409 65.7312C273.638 65.6352 273.863 65.5149 274.105 65.4371C276.757 64.5064 279.664 65.264 281.431 66.8909C282.333 67.6953 282.916 68.734 283.229 69.7501C283.542 70.7737 283.569 71.7867 283.464 72.6803C283.25 74.4872 282.445 75.7882 281.785 76.5291C281.452 76.9026 281.159 77.1634 280.942 77.3116C280.73 77.4635 280.616 77.5391 280.608 77.5278Z" fill="#455A64"/>
<path d="M279.618 60.4377C279.59 60.4928 279.101 60.0551 278.052 59.9001C277.534 59.8329 276.88 59.8359 276.19 60.0687C275.502 60.2827 274.775 60.7393 274.275 61.462L274.089 61.7289L273.976 61.4265C273.364 59.7958 271.578 58.2453 269.364 58.0018C267.702 57.8106 266.189 58.5598 264.931 59.2832C263.664 60.0249 262.507 60.7506 261.417 61.1014C260.34 61.4802 259.385 61.5218 258.758 61.4144C258.442 61.3592 258.206 61.2851 258.052 61.2201C257.898 61.1536 257.821 61.1128 257.826 61.0999C257.838 61.0644 258.163 61.2005 258.776 61.2617C259.387 61.3192 260.291 61.2383 261.322 60.8391C262.365 60.4664 263.472 59.7399 264.747 58.9695C265.39 58.5938 266.083 58.2082 266.866 57.9353C267.641 57.6563 268.521 57.5165 269.404 57.6102C271.781 57.8726 273.666 59.5433 274.292 61.3048L273.993 61.2693C274.563 60.4777 275.366 60.0082 276.108 59.8026C276.852 59.5781 277.544 59.6038 278.083 59.7043C278.626 59.8102 279.02 60.0037 279.269 60.1572C279.514 60.3197 279.628 60.4256 279.618 60.4377Z" fill="#455A64"/>
<path d="M269.667 86.5476C269.325 86.2165 268.812 86.1084 268.339 86.1621C267.895 86.2127 267.347 86.6096 267.065 87.092C267.058 87.101 267.052 87.1109 267.046 87.1207C267.034 87.1419 267.015 87.1608 267.004 87.1827L267.022 87.1698C266.919 87.3414 266.859 87.5425 266.88 87.7406C266.928 88.1874 267.268 88.5624 267.669 88.7627C268.308 89.0825 269.154 88.9895 269.65 88.4754C270.146 87.9621 270.181 87.0436 269.667 86.5476Z" fill="#DA671D"/>
<path d="M270.045 88.8988C269.986 88.9101 269.912 88.6743 269.711 88.3575C269.515 88.0422 269.162 87.6468 268.659 87.4163C268.154 87.188 267.624 87.1819 267.257 87.2416C266.886 87.2983 266.66 87.3974 266.63 87.346C266.603 87.3067 266.788 87.1108 267.19 86.9717C267.583 86.8319 268.212 86.7827 268.821 87.0587C269.429 87.3369 269.806 87.8434 269.958 88.2312C270.118 88.6251 270.092 88.8935 270.045 88.8988Z" fill="#263238"/>
<path d="M254.615 89.834C254.652 89.8105 254.831 90.2127 254.547 90.7858C254.406 91.0579 254.145 91.3588 253.742 91.5146C253.338 91.6771 252.821 91.6159 252.409 91.3558C251.996 91.0972 251.718 90.6565 251.689 90.2218C251.654 89.7901 251.814 89.425 251.997 89.18C252.392 88.6765 252.832 88.6652 252.827 88.7083C252.852 88.768 252.495 88.8799 252.229 89.335C252.102 89.5573 252.005 89.8619 252.05 90.1825C252.087 90.5 252.299 90.819 252.618 91.0224C252.939 91.2227 253.319 91.2757 253.621 91.1721C253.928 91.0738 254.162 90.8546 254.307 90.6444C254.603 90.2074 254.55 89.8362 254.615 89.834Z" fill="#DA671D"/>
<path d="M252.062 89.5429C252.104 89.5626 252.039 89.8007 251.71 89.9617C251.55 90.0358 251.327 90.0827 251.082 90.023C250.835 89.9655 250.599 89.7818 250.464 89.5316C250.328 89.2813 250.303 88.9835 250.39 88.7446C250.474 88.5064 250.635 88.3462 250.786 88.2524C251.1 88.0649 251.335 88.1405 251.328 88.1866C251.333 88.2456 251.143 88.2842 250.955 88.4732C250.762 88.6554 250.62 89.0069 250.811 89.3433C250.988 89.6865 251.361 89.7599 251.618 89.6986C251.879 89.6442 252.015 89.5074 252.062 89.5429Z" fill="#DA671D"/>
<path d="M260.376 156.684C260.376 156.684 279.094 157.77 290.158 157.871C298.728 157.95 302.548 155.673 304.261 150.167C305.7 145.544 302.609 136.68 302.609 136.68C296.814 136.708 293.238 137.507 289.509 139.255L290.503 143.309L260.323 145.911L260.376 156.684Z" fill="#FFBE9D"/>
<path d="M296.793 147.634C296.69 147.704 295.81 146.064 293.968 144.83C292.146 143.566 290.297 143.347 290.325 143.224C290.33 143.178 290.795 143.167 291.526 143.329C292.254 143.489 293.24 143.859 294.19 144.505C295.137 145.153 295.842 145.935 296.257 146.555C296.676 147.175 296.834 147.613 296.793 147.634Z" fill="#EB996E"/>
<path d="M253.522 139.228C253.522 139.228 247.732 140.617 243.481 143.459L248.002 155.754C249.512 159.789 254.139 161.772 257.804 159.679C263.496 156.426 265.504 146.929 265.504 146.929L271.761 119.806L261.396 113.312L253.522 139.228Z" fill="#FFBE9D"/>
<path d="M261.396 113.312L261.814 104.391L259.5 95.3558C259.371 94.8553 259.309 94.2308 259.714 93.9262C260.137 93.6079 260.772 93.6238 261.112 93.9708C261.745 94.6187 264.768 102.554 264.768 102.554C264.768 102.554 269.354 99.7973 270.173 99.6627C270.992 99.5281 272.013 101.996 272.077 102.192C272.141 102.387 272.085 103.849 272.085 103.849C272.085 103.849 274.922 103.934 275.176 104.323C275.43 104.713 275.503 106.73 275.503 106.73C275.503 106.73 276.702 107.115 276.896 108.024C277.089 108.934 277.475 110.43 276.909 110.758C276.344 111.086 275.15 111.743 275.15 111.743C275.15 111.743 274.669 116.371 274.545 116.792C274.421 117.213 271.762 119.805 271.762 119.805L261.396 113.312Z" fill="#FFBE9D"/>
<path d="M251.756 159.865C251.768 159.84 252.039 160.026 252.625 160.217C253.205 160.412 254.123 160.588 255.297 160.428C256.457 160.272 257.887 159.762 259.166 158.644C260.427 157.504 261.703 155.992 262.764 154.09C263.291 153.139 263.766 152.095 264.164 150.967C264.573 149.841 264.838 148.619 265.134 147.343C265.728 144.795 266.367 142.052 267.046 139.138C268.411 133.306 269.936 126.786 271.579 119.764L271.591 119.712L271.631 119.673C272.151 119.163 272.674 118.638 273.192 118.097C273.45 117.826 273.707 117.552 273.955 117.27C274.075 117.129 274.202 116.984 274.298 116.844C274.386 116.752 274.389 116.57 274.425 116.377C274.63 114.864 274.789 113.299 274.957 111.725L274.968 111.625L275.056 111.575C275.529 111.31 276.009 111.041 276.497 110.768C276.607 110.703 276.768 110.624 276.837 110.57C276.896 110.521 276.95 110.436 276.973 110.316C277.029 110.086 277.01 109.804 276.982 109.533C276.913 109 276.788 108.382 276.646 107.89C276.458 107.431 275.939 107.1 275.442 106.919L275.312 106.871L275.306 106.74C275.287 106.302 275.258 105.851 275.209 105.403C275.183 105.179 275.154 104.953 275.108 104.739C275.084 104.638 275.055 104.522 275.021 104.46C274.998 104.41 275.008 104.447 274.974 104.415C274.934 104.398 274.902 104.376 274.847 104.362C274.008 104.131 273.017 104.097 272.079 104.05L271.882 104.04L271.888 103.846C271.903 103.379 271.923 102.858 271.901 102.368C271.913 102.239 271.796 102.043 271.725 101.862C271.644 101.68 271.557 101.5 271.466 101.323C271.283 100.971 271.083 100.626 270.847 100.325C270.73 100.178 270.601 100.034 270.463 99.9477C270.309 99.8555 270.244 99.8343 270.061 99.9016C269.71 100.025 269.348 100.215 268.995 100.39C267.584 101.124 266.213 101.926 264.869 102.725L264.672 102.842L264.587 102.63C263.872 100.84 263.166 99.0723 262.47 97.3297C262.122 96.4588 261.777 95.5939 261.435 94.7359C261.31 94.3019 261.007 94.057 260.604 93.9579C260.204 93.8559 259.808 93.9791 259.62 94.3185C259.526 94.4788 259.485 94.6716 259.505 94.8568C259.527 95.0254 259.61 95.2802 259.659 95.4873C259.774 95.9235 259.888 96.3575 260.002 96.7892C260.229 97.6533 260.454 98.5098 260.677 99.358C261.122 101.055 261.559 102.719 261.987 104.349L261.994 104.376L261.992 104.403C261.842 107.507 261.698 110.486 261.56 113.323L261.559 113.344L261.553 113.363C258.696 122.659 256.327 130.37 254.666 135.775C253.831 138.452 253.175 140.559 252.722 142.012C252.497 142.716 252.323 143.262 252.199 143.648C252.078 144.017 252.004 144.204 252.004 144.204C252.004 144.204 252.047 144.007 252.152 143.633C252.264 143.244 252.423 142.693 252.628 141.983C253.061 140.522 253.689 138.408 254.486 135.719C256.115 130.304 258.438 122.58 261.24 113.266L261.233 113.306C261.362 110.469 261.497 107.49 261.638 104.385L261.644 104.438C261.212 102.81 260.772 101.146 260.322 99.4503C260.097 98.602 259.87 97.7463 259.641 96.8821C259.527 96.4505 259.412 96.0165 259.297 95.5803C259.242 95.349 259.173 95.1743 259.131 94.8946C259.102 94.63 259.159 94.3563 259.294 94.125C259.431 93.8929 259.641 93.7047 259.907 93.6102C260.171 93.5225 260.437 93.5308 260.688 93.5852C260.939 93.645 261.183 93.7568 261.381 93.9375C261.583 94.1038 261.72 94.3904 261.788 94.5892C262.132 95.4473 262.479 96.3114 262.827 97.1823C263.525 98.9241 264.232 100.692 264.949 102.482L264.667 102.387C266.018 101.584 267.386 100.782 268.815 100.038C269.18 99.857 269.529 99.6703 269.937 99.5259C270.048 99.4934 270.157 99.4533 270.318 99.4722C270.455 99.4919 270.583 99.547 270.676 99.6151C270.878 99.7466 271.021 99.9122 271.154 100.078C271.416 100.413 271.623 100.773 271.814 101.14C271.909 101.324 271.999 101.51 272.083 101.699C272.152 101.894 272.279 102.054 272.292 102.34C272.316 102.876 272.294 103.38 272.28 103.859L272.09 103.654C273.063 103.707 274.004 103.723 274.976 103.989C275.036 104.004 275.105 104.041 275.171 104.074C275.23 104.103 275.351 104.21 275.366 104.272C275.439 104.417 275.459 104.532 275.491 104.655C275.542 104.894 275.571 105.126 275.597 105.358C275.648 105.822 275.678 106.275 275.696 106.725L275.56 106.545C276.145 106.767 276.724 107.106 277.005 107.74C277.188 108.363 277.284 108.888 277.367 109.49C277.396 109.786 277.424 110.084 277.349 110.408C277.317 110.566 277.234 110.749 277.075 110.876C276.917 110.99 276.819 111.026 276.689 111.105C276.199 111.378 275.716 111.649 275.241 111.914L275.34 111.766C275.17 113.346 275.009 114.901 274.8 116.434L274.751 116.727C274.744 116.817 274.673 116.984 274.612 117.057C274.491 117.232 274.366 117.373 274.239 117.521C273.984 117.81 273.724 118.087 273.462 118.359C272.939 118.903 272.414 119.428 271.889 119.942L271.941 119.851C270.278 126.868 268.734 133.384 267.353 139.212C266.661 142.123 266.008 144.863 265.404 147.408C265.102 148.676 264.824 149.916 264.404 151.053C263.994 152.193 263.506 153.247 262.965 154.205C261.877 156.122 260.573 157.639 259.284 158.78C257.96 159.914 256.497 160.412 255.312 160.552C254.115 160.695 253.184 160.495 252.604 160.279C252.311 160.171 252.097 160.07 251.961 159.988C251.823 159.911 251.753 159.87 251.756 159.865Z" fill="#EB996E"/>
<path d="M272.083 103.835C272.08 103.89 271.827 103.919 271.427 103.938C271.03 103.961 270.483 103.972 269.921 104.116C269.363 104.261 268.91 104.541 268.638 104.801C268.362 105.059 268.241 105.278 268.186 105.255C268.141 105.24 268.171 104.965 268.431 104.616C268.682 104.267 269.187 103.898 269.822 103.735C270.454 103.573 271.036 103.611 271.438 103.659C271.843 103.713 272.086 103.782 272.083 103.835Z" fill="#EB996E"/>
<path d="M269.865 103.918C269.763 103.88 269.757 103.647 269.85 103.397C269.943 103.146 270.101 102.975 270.203 103.013C270.305 103.051 270.312 103.285 270.219 103.535C270.126 103.784 269.967 103.956 269.865 103.918Z" fill="#EB996E"/>
<path d="M275.625 106.663C275.624 106.777 274.612 106.895 273.382 106.973C272.772 107.028 272.313 107.246 272.133 107.574C271.933 107.883 272 108.14 271.942 108.156C271.906 108.191 271.701 107.902 271.884 107.449C271.969 107.236 272.154 107 272.424 106.849C272.691 106.696 273.013 106.621 273.334 106.583C274.605 106.501 275.628 106.56 275.625 106.663Z" fill="#EB996E"/>
<path d="M275.121 109.383C275.23 109.389 275.293 109.947 275.262 110.632C275.231 111.316 275.118 111.867 275.009 111.862C274.9 111.857 274.838 111.298 274.869 110.614C274.9 109.929 275.012 109.378 275.121 109.383Z" fill="#EB996E"/>
<path d="M278.264 129.745L278.936 127.428C279.071 126.963 279.657 126.815 279.996 127.161L280.873 128.056L281.421 125.876C281.565 125.302 282.349 125.222 282.606 125.757L283.843 128.338L278.264 129.745Z" fill="white"/>
<path d="M283.855 129.33C283.882 129.436 282.686 129.822 281.185 130.194C279.684 130.566 278.447 130.781 278.42 130.675C278.394 130.57 279.589 130.183 281.091 129.811C282.591 129.44 283.829 129.225 283.855 129.33Z" fill="white"/>
<path d="M238.898 116.407C238.916 116.422 238.616 116.698 238.225 117.305C237.838 117.911 237.409 118.883 237.2 120.159C236.978 121.432 236.968 122.98 237.064 124.689C237.147 126.399 237.286 128.278 237.495 130.244C237.91 134.177 238.548 137.705 239.091 140.239C239.36 141.507 239.602 142.527 239.769 143.233C239.844 143.545 239.908 143.813 239.964 144.044C240.007 144.23 240.022 144.33 240.022 144.33C240.022 144.33 239.986 144.236 239.933 144.053C239.87 143.824 239.796 143.558 239.709 143.248C239.523 142.547 239.265 141.529 238.981 140.263C238.41 137.733 237.754 134.201 237.338 130.261C237.128 128.292 236.994 126.41 236.919 124.696C236.831 122.985 236.852 121.424 237.091 120.14C237.315 118.854 237.766 117.874 238.174 117.271C238.585 116.667 238.898 116.407 238.898 116.407Z" fill="white"/>
<path d="M254.807 106.129C254.809 106.134 254.75 106.166 254.637 106.222C254.482 106.295 254.318 106.374 254.138 106.46C253.704 106.666 253.081 106.97 252.33 107.385C250.82 108.196 248.806 109.451 246.649 110.935C244.491 112.419 242.578 113.821 241.181 114.82C240.538 115.275 239.985 115.666 239.52 115.995C239.355 116.109 239.204 116.211 239.063 116.307C238.957 116.376 238.9 116.411 238.897 116.407C238.894 116.402 238.945 116.359 239.044 116.281C239.179 116.178 239.325 116.067 239.484 115.945C239.941 115.605 240.484 115.2 241.114 114.73C242.494 113.708 244.398 112.291 246.56 110.805C248.72 109.319 250.749 108.075 252.277 107.286C253.036 106.883 253.67 106.593 254.112 106.404C254.298 106.328 254.466 106.258 254.624 106.193C254.742 106.145 254.804 106.124 254.807 106.129Z" fill="white"/>
<path d="M290.861 111.047C290.857 111.05 290.814 111.017 290.735 110.951C290.627 110.858 290.515 110.76 290.395 110.656C290.098 110.405 289.655 110.052 289.071 109.669C287.916 108.885 286.19 108.001 284.211 107.21C282.229 106.418 280.378 105.856 279.029 105.485C278.355 105.299 277.806 105.161 277.426 105.067C277.271 105.028 277.128 104.991 276.989 104.956C276.889 104.929 276.837 104.912 276.838 104.907C276.839 104.902 276.893 104.908 276.995 104.925C277.136 104.952 277.282 104.979 277.438 105.008C277.823 105.083 278.377 105.204 279.057 105.378C280.416 105.721 282.279 106.269 284.269 107.064C286.256 107.859 287.985 108.764 289.133 109.578C290.292 110.377 290.861 111.047 290.861 111.047Z" fill="white"/>
<path d="M255.021 168.754C255.017 168.763 254.911 168.73 254.726 168.652C254.541 168.574 254.279 168.447 253.976 168.251C253.382 167.875 252.574 167.137 252.332 166.024C252.081 164.933 252.317 163.903 252.624 163.258C252.777 162.931 252.937 162.685 253.061 162.527C253.185 162.369 253.265 162.291 253.272 162.297C253.298 162.315 252.999 162.65 252.726 163.302C252.452 163.943 252.244 164.94 252.485 165.989C252.714 167.046 253.47 167.765 254.039 168.159C254.619 168.563 255.034 168.726 255.021 168.754Z" fill="white"/>
<path d="M252.614 160.568C252.656 160.556 252.817 160.981 252.974 161.517C253.131 162.054 253.225 162.498 253.183 162.511C253.141 162.523 252.98 162.098 252.823 161.561C252.666 161.026 252.573 160.58 252.614 160.568Z" fill="white"/>
<path d="M262.835 330.068L285.896 329.952L285.478 250.225L285.264 169.129L254.031 168.741L248.416 179.327C246.151 183.598 244.611 188.239 244.096 193.046C243.703 196.71 246.448 208.657 247.407 211.698L256.003 238.96L262.835 330.068Z" fill="#263238"/>
<path d="M292.03 169.239L317.368 238.315C320.344 247.573 319.349 256.752 314.244 265.304L284.825 322.726L268.284 302.033L292.899 250.591L271.199 215.434L274.851 169.312L285.072 169.148L292.03 169.239Z" fill="#263238"/>
<path d="M283.158 192.38C283.158 192.38 283.176 192.5 283.193 192.734C283.209 192.986 283.231 193.331 283.259 193.775C283.309 194.709 283.381 196.055 283.473 197.779C283.642 201.277 283.885 206.305 284.185 212.511C284.471 218.736 284.812 226.141 285.19 234.362C285.376 238.475 285.569 242.792 285.771 247.266C285.915 249.503 285.849 251.784 285.876 254.097C285.883 256.41 285.89 258.757 285.897 261.132C285.929 280.132 285.958 297.329 285.979 309.798C285.971 316.012 285.963 321.045 285.958 324.546C285.947 326.272 285.939 327.619 285.933 328.555C285.926 328.999 285.92 329.345 285.916 329.597C285.91 329.832 285.897 329.952 285.897 329.952C285.897 329.952 285.884 329.832 285.876 329.597C285.871 329.345 285.863 328.999 285.853 328.555C285.842 327.619 285.826 326.272 285.805 324.546C285.78 321.045 285.745 316.012 285.7 309.8C285.649 297.333 285.58 280.137 285.503 261.14C285.497 258.765 285.491 256.419 285.484 254.105C285.459 251.793 285.527 249.512 285.385 247.275C285.192 242.801 285.006 238.485 284.828 234.373C284.481 226.152 284.169 218.747 283.907 212.521C283.659 206.314 283.459 201.284 283.319 197.786C283.259 196.06 283.212 194.714 283.179 193.779C283.168 193.334 283.159 192.988 283.153 192.736C283.149 192.501 283.158 192.38 283.158 192.38Z" fill="#455A64"/>
<path d="M282.58 170.602C282.607 170.599 282.662 170.867 282.739 171.353C282.818 171.839 282.912 172.545 283.012 173.42C283.214 175.168 283.427 177.593 283.548 180.276C283.669 182.962 283.675 185.395 283.632 187.155C283.61 188.035 283.581 188.747 283.547 189.238C283.514 189.73 283.483 190.001 283.455 190C283.398 189.999 283.382 188.911 283.354 187.154C283.327 185.397 283.275 182.971 283.155 180.294C283.034 177.618 282.867 175.197 282.736 173.445C282.606 171.694 282.523 170.608 282.58 170.602Z" fill="#455A64"/>
<path d="M277.498 172.158C277.538 172.208 277.105 172.404 276.986 173.02C276.931 173.314 276.992 173.689 277.28 173.941C277.552 174.195 278.03 174.322 278.414 174.148C278.796 173.971 279.012 173.527 278.998 173.154C278.995 172.772 278.751 172.481 278.492 172.33C277.949 172.018 277.517 172.218 277.506 172.155C277.495 172.134 277.578 172.054 277.773 171.998C277.965 171.942 278.279 171.927 278.621 172.083C278.953 172.224 279.332 172.605 279.36 173.135C279.397 173.639 279.142 174.236 278.578 174.505C278.005 174.756 277.385 174.56 277.029 174.202C276.646 173.834 276.604 173.299 276.716 172.955C276.821 172.595 277.037 172.366 277.205 172.257C277.376 172.147 277.49 172.137 277.498 172.158Z" fill="#455A64"/>
<path d="M265.4 170.789C265.421 170.783 265.515 171.035 265.607 171.512C265.702 171.988 265.76 172.698 265.674 173.567C265.591 174.436 265.329 175.462 264.802 176.496C264.279 177.528 263.466 178.557 262.377 179.352C261.275 180.131 260.04 180.572 258.894 180.737C257.745 180.905 256.688 180.826 255.84 180.627C254.988 180.431 254.335 180.149 253.914 179.907C253.492 179.667 253.283 179.498 253.295 179.479C253.332 179.402 254.225 180.041 255.895 180.354C257.524 180.679 260.037 180.532 262.147 179.032C264.241 177.513 265.185 175.18 265.398 173.532C265.636 171.849 265.315 170.799 265.4 170.789Z" fill="#455A64"/>
<path d="M295.064 177.407C295.064 177.445 294.491 177.488 293.611 177.235C292.735 176.989 291.582 176.371 290.636 175.332C289.693 174.289 289.189 173.082 289.029 172.186C288.861 171.285 288.96 170.719 288.998 170.724C289.068 170.723 289.072 171.279 289.299 172.122C289.521 172.964 290.036 174.08 290.927 175.068C291.824 176.05 292.884 176.67 293.701 176.971C294.517 177.28 295.071 177.337 295.064 177.407Z" fill="#455A64"/>
<path d="M304.07 251.878C304.097 251.913 303.634 252.375 302.733 252.941C302.281 253.217 301.711 253.517 301.014 253.692C300.323 253.872 299.488 253.896 298.693 253.631C297.082 253.1 296.078 251.89 295.463 251.061C294.848 250.203 294.538 249.634 294.577 249.606C294.625 249.571 295.021 250.089 295.682 250.889C296.343 251.666 297.339 252.775 298.813 253.256C300.292 253.751 301.71 253.169 302.597 252.699C303.505 252.211 304.032 251.826 304.07 251.878Z" fill="#455A64"/>
<path d="M298.298 256.29C298.209 256.353 297.14 255.003 295.911 253.274C294.682 251.545 293.757 250.093 293.846 250.03C293.934 249.967 295.002 251.317 296.232 253.046C297.462 254.774 298.386 256.227 298.298 256.29Z" fill="#455A64"/>
<path d="M259.554 195.062C259.452 195.102 259.183 194.667 258.953 194.089C258.721 193.512 258.616 193.011 258.718 192.97C258.818 192.93 259.087 193.366 259.319 193.943C259.549 194.52 259.655 195.022 259.554 195.062Z" fill="#FAFAFA"/>
<path d="M274.192 197.153C274.083 197.153 273.996 196.778 273.996 196.317C273.996 195.855 274.084 195.48 274.192 195.48C274.301 195.48 274.389 195.854 274.389 196.317C274.389 196.778 274.301 197.153 274.192 197.153Z" fill="#FAFAFA"/>
<path d="M268.177 205.101C268.068 205.108 267.948 204.645 267.909 204.069C267.87 203.491 267.926 203.017 268.034 203.009C268.143 203.002 268.263 203.465 268.302 204.041C268.341 204.619 268.285 205.094 268.177 205.101Z" fill="#FAFAFA"/>
<path d="M257.184 210.954C257.094 211.021 256.781 210.742 256.377 210.451C255.975 210.156 255.615 209.945 255.65 209.839C255.679 209.738 256.15 209.798 256.608 210.133C257.069 210.466 257.271 210.895 257.184 210.954Z" fill="#FAFAFA"/>
<path d="M276.562 218.343C276.471 218.283 276.586 217.953 276.816 217.607C277.048 217.261 277.308 217.029 277.398 217.089C277.489 217.15 277.375 217.479 277.144 217.826C276.913 218.172 276.652 218.404 276.562 218.343Z" fill="#FAFAFA"/>
<path d="M264.573 220.434C264.464 220.434 264.376 219.81 264.376 219.04C264.376 218.27 264.465 217.646 264.573 217.646C264.682 217.646 264.769 218.271 264.769 219.04C264.769 219.81 264.682 220.434 264.573 220.434Z" fill="#FAFAFA"/>
<path d="M260.686 228.915C260.622 229.002 260.227 228.825 259.803 228.517C259.379 228.209 259.088 227.889 259.152 227.8C259.216 227.712 259.61 227.89 260.035 228.198C260.459 228.506 260.75 228.827 260.686 228.915Z" fill="#FAFAFA"/>
<path d="M272.798 231.866C272.842 231.965 272.597 232.171 272.251 232.325C271.904 232.479 271.588 232.523 271.543 232.424C271.499 232.325 271.744 232.119 272.09 231.965C272.437 231.811 272.753 231.767 272.798 231.866Z" fill="#FAFAFA"/>
<path d="M264.573 245.667C264.475 245.716 264.084 245.131 263.7 244.362C263.315 243.592 263.081 242.928 263.179 242.879C263.276 242.831 263.667 243.415 264.052 244.186C264.437 244.955 264.669 245.619 264.573 245.667Z" fill="#FAFAFA"/>
<path d="M277.956 244.413C277.86 244.362 278.033 243.852 278.34 243.275C278.648 242.697 278.975 242.271 279.071 242.322C279.167 242.374 278.996 242.883 278.687 243.461C278.38 244.038 278.052 244.465 277.956 244.413Z" fill="#FAFAFA"/>
<path d="M272.101 256.124C271.989 256.107 271.998 255.511 271.882 254.801C271.774 254.09 271.582 253.525 271.683 253.475C271.774 253.423 272.15 253.959 272.271 254.739C272.397 255.519 272.203 256.145 272.101 256.124Z" fill="#FAFAFA"/>
<path d="M265.828 262.815C265.747 262.888 265.37 262.604 264.985 262.181C264.6 261.757 264.353 261.354 264.434 261.282C264.514 261.209 264.891 261.493 265.277 261.916C265.661 262.34 265.908 262.742 265.828 262.815Z" fill="#FAFAFA"/>
<path d="M281.054 265.355C280.976 265.279 281.254 264.871 281.674 264.445C282.095 264.019 282.498 263.734 282.575 263.811C282.653 263.887 282.375 264.295 281.955 264.722C281.534 265.147 281.131 265.431 281.054 265.355Z" fill="#FAFAFA"/>
<path d="M272.296 275.371C272.189 275.354 272.187 274.778 272.292 274.084C272.397 273.389 272.57 272.84 272.678 272.856C272.785 272.873 272.787 273.449 272.682 274.144C272.576 274.838 272.403 275.387 272.296 275.371Z" fill="#FAFAFA"/>
<path d="M266.403 280.231C266.309 280.286 265.979 279.896 265.665 279.361C265.351 278.825 265.173 278.346 265.267 278.291C265.361 278.236 265.692 278.626 266.005 279.161C266.318 279.697 266.497 280.176 266.403 280.231Z" fill="#FAFAFA"/>
<path d="M280.599 286.367C280.663 286.456 280.277 286.84 279.739 287.226C279.201 287.611 278.712 287.852 278.649 287.764C278.585 287.675 278.971 287.291 279.509 286.906C280.048 286.52 280.536 286.279 280.599 286.367Z" fill="#FAFAFA"/>
<path d="M268.775 294.329C268.67 294.29 268.804 293.681 268.868 292.93C268.937 292.178 268.911 291.555 269.022 291.535C269.124 291.514 269.333 292.152 269.26 292.964C269.19 293.776 268.873 294.369 268.775 294.329Z" fill="#FAFAFA"/>
<path d="M273.495 305.754C273.41 305.822 273.091 305.565 272.784 305.18C272.476 304.795 272.294 304.428 272.38 304.36C272.465 304.291 272.784 304.549 273.091 304.933C273.399 305.319 273.58 305.686 273.495 305.754Z" fill="#FAFAFA"/>
<path d="M268.337 313.422C268.247 313.484 267.831 313.034 267.408 312.418C266.984 311.802 266.714 311.253 266.803 311.191C266.892 311.13 267.309 311.579 267.732 312.195C268.156 312.811 268.426 313.36 268.337 313.422Z" fill="#FAFAFA"/>
<path d="M282.556 303.802C282.454 303.764 282.466 303.483 282.581 303.176C282.697 302.867 282.873 302.649 282.975 302.687C283.077 302.725 283.066 303.006 282.95 303.314C282.835 303.622 282.658 303.84 282.556 303.802Z" fill="#FAFAFA"/>
<path d="M276.283 322.065C276.183 322.013 276.373 321.475 276.52 320.801C276.673 320.129 276.728 319.56 276.84 319.556C276.945 319.547 277.069 320.155 276.904 320.886C276.744 321.619 276.374 322.117 276.283 322.065Z" fill="#FAFAFA"/>
<path d="M280.36 205.223C280.262 205.269 280.022 204.965 279.825 204.543C279.628 204.122 279.548 203.743 279.647 203.697C279.745 203.651 279.985 203.955 280.182 204.377C280.378 204.798 280.459 205.177 280.36 205.223Z" fill="#FAFAFA"/>
<path d="M269.87 181.678C269.93 181.774 269.397 182.199 268.836 182.804C268.269 183.404 267.879 183.962 267.779 183.909C267.685 183.864 267.941 183.18 268.548 182.535C269.153 181.887 269.819 181.587 269.87 181.678Z" fill="#FAFAFA"/>
<path d="M279.21 181.399C279.101 181.421 278.923 180.972 278.661 180.454C278.404 179.933 278.151 179.521 278.234 179.447C278.311 179.375 278.728 179.704 279.013 180.278C279.301 180.85 279.315 181.382 279.21 181.399Z" fill="#FAFAFA"/>
<path d="M250.11 189.081C250.008 189.041 250.112 188.54 250.34 187.961C250.569 187.383 250.836 186.947 250.937 186.986C251.039 187.026 250.935 187.527 250.706 188.106C250.478 188.685 250.21 189.121 250.11 189.081Z" fill="#FAFAFA"/>
<path d="M251.049 200.499C250.98 200.583 250.549 200.338 250.087 199.953C249.625 199.568 249.307 199.188 249.376 199.105C249.446 199.021 249.877 199.266 250.339 199.651C250.801 200.035 251.119 200.415 251.049 200.499Z" fill="#FAFAFA"/>
<path d="M270.149 172.617C270.048 172.657 269.841 172.378 269.687 171.993C269.533 171.608 269.491 171.263 269.591 171.223C269.692 171.183 269.899 171.462 270.053 171.846C270.207 172.231 270.25 172.576 270.149 172.617Z" fill="#FAFAFA"/>
<path d="M288.436 178.198C288.329 178.175 288.339 177.72 288.457 177.181C288.575 176.643 288.756 176.225 288.863 176.249C288.969 176.272 288.96 176.727 288.842 177.265C288.723 177.804 288.542 178.222 288.436 178.198Z" fill="#FAFAFA"/>
<path d="M292.734 186.836C292.633 186.795 292.77 186.231 293.04 185.576C293.31 184.921 293.609 184.425 293.71 184.466C293.81 184.508 293.673 185.072 293.404 185.726C293.134 186.381 292.834 186.878 292.734 186.836Z" fill="#FAFAFA"/>
<path d="M289.667 193.807C289.569 193.855 289.21 193.333 288.863 192.64C288.517 191.947 288.314 191.346 288.412 191.297C288.509 191.249 288.868 191.771 289.215 192.464C289.562 193.157 289.763 193.758 289.667 193.807Z" fill="#FAFAFA"/>
<path d="M296.219 200.778C296.118 200.738 296.191 200.301 296.384 199.801C296.576 199.3 296.815 198.926 296.916 198.966C297.017 199.005 296.944 199.442 296.751 199.942C296.558 200.442 296.32 200.816 296.219 200.778Z" fill="#FAFAFA"/>
<path d="M290.364 207.609C290.271 207.666 290.041 207.464 289.848 207.156C289.655 206.848 289.574 206.552 289.667 206.494C289.759 206.436 289.989 206.639 290.182 206.947C290.374 207.254 290.456 207.551 290.364 207.609Z" fill="#FAFAFA"/>
<path d="M291.613 221.694C291.534 221.768 291.063 221.391 290.563 220.852C290.062 220.313 289.721 219.816 289.801 219.742C289.88 219.668 290.35 220.045 290.851 220.584C291.352 221.123 291.693 221.62 291.613 221.694Z" fill="#FAFAFA"/>
<path d="M299.286 213.603C299.201 213.671 298.788 213.288 298.364 212.749C297.941 212.21 297.667 211.719 297.752 211.651C297.837 211.584 298.25 211.967 298.674 212.506C299.098 213.045 299.371 213.536 299.286 213.603Z" fill="#FAFAFA"/>
<path d="M303.495 224.769C303.397 224.722 303.569 224.155 303.879 223.502C304.189 222.848 304.519 222.356 304.617 222.402C304.716 222.449 304.544 223.016 304.234 223.67C303.925 224.323 303.594 224.815 303.495 224.769Z" fill="#FAFAFA"/>
<path d="M294.546 233.957C294.45 234.015 294.099 233.595 293.612 233.15C293.13 232.701 292.683 232.385 292.734 232.284C292.777 232.188 293.349 232.369 293.88 232.861C294.412 233.351 294.638 233.906 294.546 233.957Z" fill="#FAFAFA"/>
<path d="M295.104 243.437C295.104 243.546 294.73 243.634 294.268 243.634C293.806 243.634 293.432 243.545 293.432 243.437C293.432 243.329 293.806 243.241 294.268 243.241C294.729 243.241 295.104 243.328 295.104 243.437Z" fill="#FAFAFA"/>
<path d="M304.305 240.788C304.21 240.729 304.404 240.258 304.549 239.664C304.7 239.071 304.75 238.565 304.862 238.557C304.967 238.545 305.097 239.098 304.93 239.759C304.767 240.422 304.391 240.848 304.305 240.788Z" fill="#FAFAFA"/>
<path d="M313.446 243.967C313.343 244.004 313.064 243.474 312.822 242.785C312.58 242.095 312.468 241.508 312.57 241.472C312.673 241.435 312.952 241.965 313.194 242.655C313.435 243.344 313.549 243.931 313.446 243.967Z" fill="#FAFAFA"/>
<path d="M311.99 256.969C311.894 256.918 312.127 256.284 312.51 255.552C312.894 254.82 313.283 254.268 313.379 254.318C313.475 254.368 313.243 255.003 312.859 255.734C312.475 256.467 312.086 257.02 311.99 256.969Z" fill="#FAFAFA"/>
<path d="M303.647 264.611C303.546 264.653 303.235 264.129 302.953 263.441C302.671 262.753 302.523 262.163 302.624 262.121C302.724 262.079 303.035 262.603 303.317 263.291C303.6 263.979 303.748 264.571 303.647 264.611Z" fill="#FAFAFA"/>
<path d="M294.407 267.555C294.407 267.664 294.095 267.752 293.71 267.752C293.325 267.752 293.013 267.663 293.013 267.555C293.013 267.447 293.325 267.359 293.71 267.359C294.095 267.359 294.407 267.446 294.407 267.555Z" fill="#FAFAFA"/>
<path d="M299.704 279.684C299.599 279.712 299.389 279.267 299.235 278.69C299.081 278.112 299.042 277.621 299.147 277.593C299.252 277.565 299.462 278.011 299.616 278.588C299.77 279.165 299.809 279.656 299.704 279.684Z" fill="#FAFAFA"/>
<path d="M293.013 275.641C292.92 275.585 293.031 275.228 293.262 274.843C293.494 274.458 293.756 274.191 293.85 274.247C293.943 274.303 293.831 274.661 293.6 275.046C293.369 275.43 293.106 275.697 293.013 275.641Z" fill="#FAFAFA"/>
<path d="M292.873 289.025C292.765 289.038 292.615 288.518 292.538 287.863C292.461 287.208 292.486 286.668 292.594 286.655C292.702 286.642 292.852 287.162 292.929 287.817C293.006 288.471 292.981 289.012 292.873 289.025Z" fill="#FAFAFA"/>
</svg>
