<svg width="17" height="21" viewBox="0 0 17 21" fill="none" xmlns="http://www.w3.org/2000/svg">
<path d="M8.03436 4.38238C7.31207 4.38238 6.60599 4.59656 6.00543 4.99785C5.40486 5.39913 4.93678 5.96949 4.66037 6.63681C4.38396 7.30412 4.31164 8.03841 4.45255 8.74683C4.59346 9.45524 4.94128 10.106 5.45202 10.6167C5.96276 11.1274 6.61348 11.4753 7.32189 11.6162C8.03031 11.7571 8.7646 11.6848 9.43191 11.4083C10.0992 11.1319 10.6696 10.6639 11.0709 10.0633C11.4722 9.46273 11.6863 8.75665 11.6863 8.03436C11.6863 7.06579 11.3016 6.1369 10.6167 5.45202C9.93182 4.76714 9.00292 4.38238 8.03436 4.38238ZM8.03436 10.2255C7.60098 10.2255 7.17734 10.097 6.817 9.85627C6.45666 9.61549 6.17581 9.27328 6.00996 8.87289C5.84412 8.4725 5.80073 8.03193 5.88527 7.60688C5.96982 7.18183 6.17851 6.7914 6.48495 6.48495C6.7914 6.17851 7.18183 5.96982 7.60688 5.88527C8.03193 5.80073 8.4725 5.84412 8.87289 6.00996C9.27328 6.17581 9.6155 6.45666 9.85627 6.817C10.097 7.17734 10.2255 7.60098 10.2255 8.03436C10.2255 8.6155 9.99469 9.17284 9.58376 9.58376C9.17284 9.99469 8.6155 10.2255 8.03436 10.2255ZM8.03436 0C5.90426 0.00241645 3.86209 0.849667 2.35588 2.35588C0.849667 3.86209 0.00241645 5.90426 0 8.03436C0 10.9012 1.32476 13.9396 3.83458 16.8219C4.96233 18.1244 6.23161 19.2972 7.61895 20.3187C7.74176 20.4047 7.88807 20.4509 8.03801 20.4509C8.18795 20.4509 8.33427 20.4047 8.45708 20.3187C9.84186 19.2968 11.1087 18.124 12.2341 16.8219C14.7403 13.9396 16.0687 10.9012 16.0687 8.03436C16.0663 5.90426 15.2191 3.86209 13.7128 2.35588C12.2066 0.849667 10.1645 0.00241645 8.03436 0ZM8.03436 18.8077C6.52518 17.6208 1.46079 13.2613 1.46079 8.03436C1.46079 6.29094 2.15336 4.61893 3.38615 3.38615C4.61893 2.15336 6.29094 1.46079 8.03436 1.46079C9.77778 1.46079 11.4498 2.15336 12.6826 3.38615C13.9154 4.61893 14.6079 6.29094 14.6079 8.03436C14.6079 13.2594 9.54354 17.6208 8.03436 18.8077Z" fill="#DA671D"/>
</svg>
