<svg width="336" height="295" viewBox="0 0 336 295" fill="none" xmlns="http://www.w3.org/2000/svg">
<path d="M260.032 57.9491C260.032 67.7268 255.46 76.4419 248.352 82.0674C243.12 86.2196 236.503 88.6841 229.288 88.6841C222.1 88.6841 215.474 86.2196 210.224 82.0674C203.107 76.433 198.544 67.7178 198.544 57.9491C198.544 40.9742 212.304 27.2051 229.288 27.2051C246.272 27.2051 260.032 40.9742 260.032 57.9491Z" fill="#DA671D"/>
<path d="M230.537 57.8282C236.053 57.1473 239.973 52.1236 239.292 46.6074C238.612 41.0912 233.588 37.1713 228.072 37.8522C222.556 38.533 218.636 43.5567 219.317 49.0729C219.997 54.5891 225.021 58.509 230.537 57.8282Z" fill="white"/>
<path d="M248.352 78.192C243.12 82.3442 236.503 84.8087 229.288 84.8087C222.1 84.8087 215.474 82.3442 210.224 78.192C212.188 69.5394 214.001 62.0744 215.885 60.1813C218.546 57.5204 225.609 55.9756 229.279 55.9756C232.949 55.9756 240.351 57.8597 241.718 59.2259C244.504 62.0029 246.906 69.6733 248.352 78.192Z" fill="white"/>
<path d="M185.114 133.724V118.544C185.114 114.4 188.472 111.043 192.615 111.043H240.441C244.584 111.043 247.942 114.4 247.942 118.544V133.724C247.942 137.867 244.584 141.224 240.441 141.224H192.624C188.481 141.233 185.114 137.867 185.114 133.724Z" fill="#DA671D"/>
<path d="M205.312 132.929L182.167 155.475L219.68 136.518" fill="#DA671D"/>
<path d="M190.918 118.168V118.088C190.918 117.472 191.418 116.972 192.034 116.972H215.68C216.296 116.972 216.796 117.472 216.796 118.088V118.168C216.796 118.784 216.296 119.284 215.68 119.284H192.034C191.418 119.284 190.918 118.784 190.918 118.168Z" fill="white"/>
<path d="M217.858 118.168V118.088C217.858 117.472 218.358 116.972 218.974 116.972H239.61C240.226 116.972 240.726 117.472 240.726 118.088V118.168C240.726 118.784 240.226 119.284 239.61 119.284H218.974C218.358 119.284 217.858 118.784 217.858 118.168Z" fill="white"/>
<path d="M208.848 123.249V123.169C208.848 122.553 209.348 122.053 209.964 122.053H239.61C240.226 122.053 240.726 122.553 240.726 123.169V123.249C240.726 123.865 240.226 124.365 239.61 124.365H209.964C209.348 124.365 208.848 123.865 208.848 123.249Z" fill="white"/>
<path d="M190.918 123.249V123.169C190.918 122.553 191.418 122.053 192.034 122.053H205.277C205.893 122.053 206.393 122.553 206.393 123.169V123.249C206.393 123.865 205.893 124.365 205.277 124.365H192.034C191.418 124.365 190.918 123.865 190.918 123.249Z" fill="white"/>
<path d="M212.965 128.33V128.25C212.965 127.634 213.465 127.134 214.081 127.134H239.61C240.226 127.134 240.726 127.634 240.726 128.25V128.33C240.726 128.946 240.226 129.447 239.61 129.447H214.081C213.465 129.447 212.965 128.946 212.965 128.33Z" fill="white"/>
<path d="M190.918 128.33V128.25C190.918 127.634 191.418 127.134 192.034 127.134H209.67C210.286 127.134 210.786 127.634 210.786 128.25V128.33C210.786 128.946 210.286 129.447 209.67 129.447H192.034C191.418 129.447 190.918 128.946 190.918 128.33Z" fill="white"/>
<path d="M190.918 133.41V133.33C190.918 132.714 191.418 132.214 192.034 132.214H198.58C199.196 132.214 199.696 132.714 199.696 133.33V133.41C199.696 134.027 199.196 134.527 198.58 134.527H192.034C191.418 134.527 190.918 134.027 190.918 133.41Z" fill="white"/>
<path d="M202.008 133.41V133.33C202.008 132.714 202.508 132.214 203.125 132.214H239.61C240.226 132.214 240.726 132.714 240.726 133.33V133.41C240.726 134.027 240.226 134.527 239.61 134.527H203.125C202.508 134.527 202.008 134.027 202.008 133.41Z" fill="white"/>
<path d="M67.0634 112.235C73.9544 97.425 67.5353 79.8332 52.7258 72.9422C37.9163 66.0511 20.3245 72.4703 13.4334 87.2798C6.54236 102.089 12.9615 119.681 27.771 126.572C42.5805 133.463 60.1723 127.044 67.0634 112.235Z" fill="#DA671D"/>
<path d="M35.6473 121.044C39.3836 119.731 41.3486 115.639 40.0363 111.902C38.7239 108.166 34.6312 106.201 30.8948 107.513C27.1585 108.826 25.1935 112.919 26.5059 116.655C27.8182 120.391 31.911 122.356 35.6473 121.044Z" fill="white"/>
<path d="M29.51 116.849L29.1617 112.304L32.93 109.732L37.0375 111.706L37.3857 116.251L33.6175 118.823L29.51 116.849Z" fill="#DA671D"/>
<path d="M49.6148 91.9959C53.3436 90.6629 55.2858 86.5596 53.9528 82.8308C52.6199 79.102 48.5165 77.1598 44.7877 78.4927C41.0589 79.8257 39.1167 83.929 40.4497 87.6578C41.7826 91.3866 45.886 93.3288 49.6148 91.9959Z" fill="white"/>
<path d="M43.6544 87.3811L43.9044 81.6037L48.262 77.7998L52.3695 79.7732L52.1195 85.5505L47.762 89.3545L43.6544 87.3811Z" fill="#DA671D"/>
<path d="M38.2341 110.964L32.7515 108.33L36.8054 98.9806C37.0644 98.3913 37.3412 97.802 37.6448 97.2305L42.4042 88.2207L47.8868 90.8549L43.9757 100.061C43.6721 100.775 43.3418 101.472 42.9756 102.151L38.2341 110.964Z" fill="white"/>
<path d="M60.7806 115.669C61.8343 115.178 78.8091 115.955 78.8091 115.955L66.5758 104.722L60.7806 115.669Z" fill="#DA671D"/>
<path d="M135.665 49.7543C142.037 35.0215 135.26 17.912 120.527 11.5393C105.795 5.16649 88.6851 11.9436 82.3123 26.6764C75.9396 41.4092 82.7167 58.5187 97.4495 64.8914C112.182 71.2642 129.292 64.4871 135.665 49.7543Z" fill="#DA671D"/>
<path d="M109.964 13.4453H108.026V37.8583H109.964V13.4453Z" fill="white"/>
<path d="M87.548 51.9527L88.6508 53.5459L108.995 39.4644L107.892 37.8713L87.548 51.9527Z" fill="white"/>
<path d="M111.669 38.215C111.669 39.6883 110.473 40.8938 108.99 40.8938C107.517 40.8938 106.312 39.6972 106.312 38.215C106.312 36.7416 107.508 35.5361 108.99 35.5361C110.473 35.5361 111.669 36.7327 111.669 38.215Z" fill="white"/>
<path d="M161.728 239.128C161.728 239.128 163.683 257.049 165.871 258.487C169.782 261.068 215.054 267.032 215.054 267.032L213.572 278.81C213.572 278.81 151.566 284.382 148.932 281.284C144.36 275.908 136.324 249.977 136.324 249.977L161.728 239.128Z" fill="#E06A58"/>
<path d="M131.832 192.989L136.842 180.961C136.842 180.961 150.432 187.345 154.915 195.23C159.71 203.66 165.576 248.476 165.576 248.476C165.576 248.476 141.583 254.004 137.172 251.655C132.761 249.307 131.832 192.989 131.832 192.989Z" fill="#C6692D"/>
<path d="M93.6767 137.162C90.1675 135.876 86.4528 134.751 82.6935 135.037C78.9343 135.323 75.0946 137.314 73.8177 140.618C72.9069 142.957 73.3266 145.717 71.8889 147.824C70.5138 149.842 67.7814 150.681 65.2276 150.851C62.6649 151.03 60.0843 150.69 57.5394 151.021C49.6815 152.065 44.0738 160.602 46.6544 167.594C47.6813 170.38 49.7886 173.041 49.3064 175.943C48.7975 179.05 45.5382 181.095 44.1988 183.979C42.4219 187.819 44.5471 192.471 48.0563 195.087C51.5656 197.695 56.1285 198.686 60.5575 199.347C66.6563 200.257 72.9515 200.686 78.9789 199.4C85.0063 198.114 90.7657 194.936 93.8821 189.971C95.2662 187.774 96.1055 185.292 97.7128 183.229C101.035 178.97 106.919 177.318 111.553 174.3C116.616 170.987 120.331 164.54 117.349 159.495C114.473 154.646 106.99 153.566 103.99 148.788C102.749 146.815 102.454 144.466 101.651 142.314C100.829 140.154 98.8647 139.064 93.6767 137.162Z" fill="#212121"/>
<path d="M114.125 196.641C115.009 197.659 116.054 198.775 117.5 198.873C119.027 198.98 120.304 197.9 121.286 196.855C126.358 191.489 129.707 184.899 131.064 178.103C129.805 177.389 128.591 176.702 127.492 176.059C126.474 175.451 125.706 174.603 125.269 173.612C124.965 172.88 124.858 172.112 124.938 171.308C125.653 164.593 126.287 160.852 128.644 154.039C117.447 151.512 106.883 148.511 100.811 143.439C100.07 146.565 99.195 152.681 97.3287 158.744C95.3375 165.165 92.23 171.514 86.9617 174.246C97.3019 180.354 106.526 187.944 114.125 196.641Z" fill="#F9A07B"/>
<path d="M124.938 171.318C124.858 172.122 124.965 172.898 125.269 173.622C118.643 181.658 103.829 171.157 97.3286 158.754C99.1949 152.691 100.07 146.575 100.811 143.449C106.874 148.521 117.447 151.53 128.644 154.048C126.287 160.862 125.653 164.594 124.938 171.318Z" fill="#E06A58"/>
<path d="M143.387 268.47C141.922 278.167 152.387 288.605 152.646 293.784C130.421 293.784 83.8631 295.142 60.1555 291.918C59.0751 285.935 70.7815 272.479 70.7815 259.192C70.7815 257.433 70.7101 255.504 70.5672 253.432C70.1922 247.503 69.3171 240.449 68.3438 233.216C65.7007 213.813 62.1825 193.061 64.781 188.757C69.8707 180.372 81.7737 174.675 87.676 172.228C89.703 171.389 91.0245 170.933 91.1228 170.88C98.5252 183.506 113.589 194.275 119.277 193.793C120.858 193.668 125.546 192.034 128.644 176.434C129.85 177.122 131.055 177.756 132.252 178.372C138.136 181.434 143.655 183.961 145.244 187.899C149.441 198.266 153.557 224.403 152.646 233.698C151.727 243.074 147.958 250.236 145.315 259.647C144.699 261.853 144.137 264.192 143.681 266.71C143.565 267.273 143.476 267.862 143.387 268.47Z" fill="#DA671D"/>
<path d="M152.646 293.785C130.421 293.785 83.8631 295.143 60.1555 291.919C59.0751 285.936 70.7815 272.48 70.7815 259.193C70.7815 257.434 70.7101 255.505 70.5672 253.433C70.1922 247.504 69.3171 240.45 68.3438 233.217C72.5496 237.655 78.6841 218.903 81.3986 224.395C96.0875 254.04 107.669 261.836 127.796 261.836C133.796 261.836 139.333 261.005 145.315 259.648C144.699 261.854 144.137 264.193 143.681 266.711C143.574 267.283 143.476 267.872 143.387 268.479C141.922 278.159 152.388 288.597 152.646 293.785Z" fill="#DA671D"/>
<path d="M132.252 178.372C131.296 185.31 128.466 194.659 120.233 197.123C109.107 200.454 93.007 179.666 87.6761 172.228C89.7031 171.389 91.0247 170.933 91.1229 170.88C98.5254 183.506 113.589 194.275 119.277 193.793C120.858 193.668 125.546 192.034 128.644 176.434C129.85 177.113 131.055 177.747 132.252 178.372Z" fill="#C6692D"/>
<path d="M136.824 283.345L136.743 291.087L275.149 291.908L275.435 283.131L136.824 283.345Z" fill="#325F73"/>
<path d="M335.137 214.276L332.056 211.151L231.243 210.49L180.667 283.631L183.31 285.756L335.137 214.276Z" fill="#325F73"/>
<path d="M233.19 213.195L183.31 285.756L278.587 286.229L335.137 214.276L233.19 213.195Z" fill="#030615"/>
<path d="M257.263 259.512C263.388 259.512 268.354 257.03 268.354 253.967C268.354 250.905 263.388 248.422 257.263 248.422C251.138 248.422 246.173 250.905 246.173 253.967C246.173 257.03 251.138 259.512 257.263 259.512Z" fill="#3C738C"/>
<path d="M138.869 141.564C140.44 133.135 146.217 127.134 151.78 128.179C157.344 129.215 160.576 136.894 159.004 145.323C157.433 153.753 151.655 159.753 146.092 158.708C140.538 157.673 137.297 150.002 138.869 141.564Z" fill="#DA671D"/>
<path d="M159.022 118.857C157.987 126.197 154.71 134.287 149.932 143.225C148.254 135.903 147.182 126.983 145.7 118.062C144.191 109.124 142.271 100.186 138.94 92.8813C138.19 91.2651 137.378 89.7203 136.494 88.2916C138.467 88.1041 140.467 88.2916 142.369 88.8184C145.343 89.6131 148.129 91.149 150.406 93.2028C154.192 96.5692 156.728 101.159 158.237 105.999C159.478 110.017 159.701 114.285 159.022 118.857Z" fill="#232120"/>
<path d="M153.415 126.446C153.361 127.893 153.263 129.366 153.129 130.83C151.093 154.583 141.119 170.879 125.858 170.879C104.312 170.879 90.3462 146.716 90.3462 123.044C90.3462 99.6935 104.651 82.7901 121.394 84.7457C131.046 85.8529 138.101 89.0586 143.11 93.7554C146.423 96.8807 148.816 100.658 150.45 104.953C152.316 109.766 153.218 115.213 153.406 121.079C153.406 121.097 153.424 121.115 153.424 121.133C153.495 122.865 153.477 124.633 153.415 126.446Z" fill="#F9A07B"/>
<path d="M153.415 126.446C152.772 124.151 151.816 121.91 150.513 119.901C137.806 126.544 122.662 129.107 108.303 126.678C105.571 128.955 102.901 131.197 100.213 133.438C100.267 122.633 100.419 115.32 104.633 110.088C108.589 105.176 115.188 103.328 121.439 102.524C128.475 101.605 135.627 101.64 142.646 102.658C145.334 103.033 148.12 103.614 150.459 104.971C152.325 109.784 153.227 115.231 153.415 121.098C153.415 121.115 153.433 121.133 153.433 121.151C153.495 122.866 153.477 124.634 153.415 126.446Z" fill="#E06A58"/>
<path d="M156.522 111.821C153.566 114.321 149.86 116.393 145.699 118.072C133.859 122.849 118.474 124.43 106.481 123.849C100.588 136.797 98.2038 141.44 96.6947 152.736C90.9352 147.333 86.2473 137.44 84.8543 129.662C83.4792 121.911 83.6131 113.777 85.774 106.16C89.1761 94.1499 97.7573 87.7207 103.704 84.5954C105.187 83.7828 106.526 83.2202 107.562 82.8095C115.161 79.8717 123.724 80.1396 131.519 82.5238C135.77 83.8453 139.351 86.0777 142.36 88.8279C148.441 94.3195 152.2 101.758 154.629 107.33C155.397 109.035 156.013 110.58 156.522 111.821Z" fill="#212121"/>
<path d="M159.022 118.857C158.531 116.258 157.799 113.74 156.763 111.311C156.183 109.936 155.468 108.606 154.638 107.32C151.932 103.07 147.994 99.5692 143.235 98.0244C141.878 96.1224 140.449 94.408 138.949 92.89C133.547 87.3984 127.207 84.2552 120.492 83.1569C114.902 82.255 109.089 82.764 103.722 84.5856C105.205 83.773 106.544 83.2105 107.58 82.7997C115.179 79.862 123.742 80.1298 131.538 82.514C135.788 83.8356 139.369 86.0679 142.378 88.8182C145.351 89.6129 148.137 91.1487 150.414 93.2025C154.2 96.5689 156.736 101.159 158.245 105.998C159.478 110.017 159.701 114.285 159.022 118.857Z" fill="#2B2826"/>
<path d="M113.348 133.421C117.331 131.144 121.465 130.117 127.26 132.233" stroke="#0B2D50" stroke-width="2" stroke-miterlimit="10" stroke-linecap="round"/>
<path d="M140.619 133.26C144.03 130.715 149.084 130.456 151.718 133.26" stroke="#0B2D50" stroke-width="2" stroke-miterlimit="10" stroke-linecap="round"/>
<path d="M136.502 146.243C136.851 148.047 136.663 152.038 135.806 153.833" stroke="#CC454E" stroke-width="2" stroke-miterlimit="10" stroke-linecap="round"/>
<path d="M123.045 147.458C123.953 147.458 124.688 146.299 124.688 144.869C124.688 143.439 123.953 142.279 123.045 142.279C122.138 142.279 121.402 143.439 121.402 144.869C121.402 146.299 122.138 147.458 123.045 147.458Z" fill="#262D40"/>
<path d="M144.521 146.252C145.428 146.252 146.164 145.093 146.164 143.663C146.164 142.233 145.428 141.073 144.521 141.073C143.613 141.073 142.878 142.233 142.878 143.663C142.878 145.093 143.613 146.252 144.521 146.252Z" fill="#262D40"/>
<path d="M134.466 157.36C134.466 157.36 134.145 157.985 133.529 158.833C132.564 160.128 130.921 161.914 128.68 162.61H128.671C127.724 162.914 126.698 163.021 125.555 162.816C122.197 162.218 121.313 159.119 121.152 156.735C121.117 156.271 121.117 155.842 121.126 155.449C121.143 154.485 121.251 153.842 121.251 153.842C126.599 156.789 134.466 157.36 134.466 157.36Z" fill="#CC454E"/>
<path d="M134.466 157.36C134.466 157.36 134.144 157.985 133.528 158.833C130.796 158.798 125.206 157.396 121.125 155.449C121.143 154.485 121.25 153.842 121.25 153.842C126.599 156.789 134.466 157.36 134.466 157.36Z" fill="white"/>
<path d="M128.671 162.601C127.724 162.905 126.698 163.012 125.555 162.807C122.197 162.208 121.313 159.11 121.152 156.726C122.777 156.922 124.349 157.547 125.653 158.538C127.019 159.583 128.064 161.003 128.671 162.601Z" fill="#E8729B"/>
<path d="M96.7483 129.323C96.7483 129.323 96.5608 118.188 101.195 107.124C107.008 93.2387 118.858 87.3007 130.35 86.8989C144.199 86.4077 152.87 95.7033 152.87 95.7033C152.87 95.7033 148.36 87.7471 139.467 85.4612C133.627 83.9611 124.813 83.72 117.741 86.5953C110.455 89.5509 101.374 97.757 98.0877 106.428C94.8106 115.098 93.2123 128.599 93.2123 128.599L96.7483 129.323Z" fill="#DA671D"/>
<path d="M96.5128 158.31C102.443 157.694 106.493 149.909 105.559 140.924C104.624 131.938 99.0599 125.153 93.1298 125.769C87.1997 126.386 83.1498 134.17 84.0839 143.156C85.0181 152.142 90.5827 158.927 96.5128 158.31Z" fill="#DA671D"/>
<path d="M90.1228 131.038C93.9535 130.466 97.8735 135.458 98.8915 142.191C99.9005 148.923 97.6235 154.852 93.7928 155.424C89.9621 155.995 86.042 151.004 85.0241 144.271C84.0151 137.538 86.2921 131.618 90.1228 131.038Z" fill="#C6692D"/>
<path d="M130.439 171.21C133.615 171.21 136.19 169.607 136.19 167.63C136.19 165.652 133.615 164.049 130.439 164.049C127.263 164.049 124.689 165.652 124.689 167.63C124.689 169.607 127.263 171.21 130.439 171.21Z" fill="#DA671D"/>
<path d="M101.553 155.655C101.553 155.655 110 166.513 124.689 167.63L101.553 155.655Z" fill="#DA671D"/>
<path d="M101.553 155.655C101.553 155.655 110 166.513 124.689 167.63" stroke="#DA671D" stroke-width="2" stroke-miterlimit="10" stroke-linecap="round"/>
<path d="M136.743 262.673L136.19 276.951C136.19 276.951 84.5509 292.426 76.0234 287.533C71.8622 285.14 67.9779 271.978 65.0759 259.128C62.0399 245.627 60.0933 232.483 60.0933 232.483L90.364 226.554C90.364 226.554 90.3819 245.011 91.4087 255.681C91.7748 259.655 92.3017 262.548 93.0071 263.021C95.677 264.781 136.743 262.673 136.743 262.673Z" fill="#F9A07B"/>
<path d="M91.4087 255.664C85.9082 257.45 75.2911 260.209 65.0759 259.119C62.0399 245.618 60.0933 232.474 60.0933 232.474L90.364 226.545C90.364 226.536 90.3818 244.993 91.4087 255.664Z" fill="#E06A58"/>
<path d="M135.27 262.816C142.949 261.173 155.95 257.226 161.344 255.869C165.174 254.905 175.149 260.066 177.783 264.933C178.935 267.058 180.024 279.095 176.033 277.853C174.032 277.228 174.363 272.067 173.738 269.96C173.229 268.245 171.604 266.584 169.13 265.156C170.782 269.272 170.72 272.862 170.541 277.309C170.505 278.291 170.443 279.318 169.97 280.166C169.487 281.014 168.452 281.622 167.559 281.247C166.648 280.872 166.335 279.737 166.13 278.746C165.424 275.317 164.71 271.889 164.424 268.013C164.496 271.826 164.415 275.648 164.174 279.452C163.996 282.363 162.549 283.961 160.772 283.452C159.978 283.229 159.656 282.497 159.317 281.532C158.781 283.399 157.442 285.461 155.709 284.675C154.656 284.202 154.004 280.398 154.191 276.487C150.87 278.55 147.119 279.425 142.797 279.621C138.922 279.8 134.957 279.077 132.627 276.443C132.859 272.326 134.216 266.236 135.27 262.816Z" fill="#F9A07B"/>
<path d="M159.397 280.943C159.656 277.853 159.388 274.719 158.603 271.736" stroke="#CC454E" stroke-miterlimit="10" stroke-linecap="round"/>
<path d="M86.9618 196.605C84.7652 190.417 76.7198 177.755 76.7198 177.755C76.7198 177.755 64.4418 182.863 60.0842 191.533C52.7085 206.213 56.4589 248.36 56.4589 248.36C66.3974 252.521 86.3457 252.583 94.8375 251.387C94.8375 251.387 91.364 208.972 86.9618 196.605Z" fill="#DA671D"/>
<path d="M88.5244 199.194C91.8729 215.223 93.6678 230.17 94.2392 244.815" stroke="#C6692D" stroke-miterlimit="10" stroke-linecap="round"/>
</svg>
