<svg width="25" height="221" viewBox="0 0 25 221" fill="none" xmlns="http://www.w3.org/2000/svg">
<path d="M22.9391 0L8.19893 14.6875L2.06093 8.57143L0 10.625L7.16846 17.7679L8.19893 18.75L9.22939 17.7679L25 2.05357L22.9391 0Z" fill="#212121"/>
<path d="M22.9391 38L8.19893 52.6875L2.06093 46.5714L0 48.625L7.16846 55.7679L8.19893 56.75L9.22939 55.7679L25 40.0536L22.9391 38Z" fill="#212121"/>
<path d="M22.9391 79L8.19893 93.6875L2.06093 87.5714L0 89.625L7.16846 96.7679L8.19893 97.75L9.22939 96.7679L25 81.0536L22.9391 79Z" fill="#212121"/>
<path d="M22.9391 120L8.19893 134.688L2.06093 128.571L0 130.625L7.16846 137.768L8.19893 138.75L9.22939 137.768L25 122.054L22.9391 120Z" fill="#212121"/>
<path d="M22.9391 161L8.19893 175.688L2.06093 169.571L0 171.625L7.16846 178.768L8.19893 179.75L9.22939 178.768L25 163.054L22.9391 161Z" fill="#212121"/>
<path d="M22.9391 202L8.19893 216.688L2.06093 210.571L0 212.625L7.16846 219.768L8.19893 220.75L9.22939 219.768L25 204.054L22.9391 202Z" fill="#212121"/>
</svg>
