<svg width="17" height="17" viewBox="0 0 17 17" fill="none" xmlns="http://www.w3.org/2000/svg">
<path d="M15.6098 11.326L11.7469 9.59501L11.7363 9.59009C11.5357 9.50432 11.317 9.4699 11.0998 9.48994C10.8826 9.50999 10.6738 9.58386 10.4924 9.70489C10.471 9.719 10.4505 9.73433 10.4309 9.75081L8.43507 11.4523C7.17067 10.8381 5.86528 9.54253 5.25112 8.29453L6.95502 6.26838C6.97142 6.24788 6.987 6.22738 7.00176 6.20524C7.12019 6.02428 7.19204 5.81684 7.21092 5.60139C7.22981 5.38595 7.19513 5.16917 7.10999 4.97036V4.96052L5.37411 1.09107C5.26156 0.831355 5.06804 0.615005 4.82242 0.474317C4.57681 0.333629 4.29228 0.276148 4.01132 0.310455C2.90023 0.456662 1.88035 1.00232 1.14218 1.84552C0.403998 2.68872 -0.0020015 3.7718 7.41964e-06 4.89247C7.41964e-06 11.4031 5.29703 16.7001 11.8076 16.7001C12.9283 16.7021 14.0114 16.2961 14.8546 15.5579C15.6978 14.8197 16.2434 13.7999 16.3896 12.6888C16.424 12.4079 16.3666 12.1234 16.2261 11.8778C16.0856 11.6322 15.8694 11.4387 15.6098 11.326ZM11.8076 15.3881C9.02493 15.3851 6.35709 14.2783 4.38943 12.3107C2.42177 10.343 1.315 7.67515 1.31196 4.89247C1.30888 4.09175 1.59736 3.31729 2.12352 2.71372C2.64969 2.11015 3.37756 1.71873 4.17121 1.61257C4.17089 1.61584 4.17089 1.61914 4.17121 1.62241L5.89316 5.47629L4.19827 7.5049C4.18107 7.52469 4.16544 7.5458 4.15153 7.56804C4.02814 7.75738 3.95575 7.9754 3.94138 8.20094C3.92702 8.42649 3.97116 8.65192 4.06953 8.8554C4.81243 10.3748 6.34332 11.8942 7.87913 12.6363C8.08409 12.7337 8.31083 12.7764 8.53719 12.76C8.76355 12.7436 8.98179 12.6688 9.17059 12.5428C9.19164 12.5286 9.2119 12.5133 9.23127 12.4969L11.2246 10.7963L15.0785 12.5223C15.0785 12.5223 15.0851 12.5223 15.0875 12.5223C14.9827 13.3171 14.5918 14.0464 13.9881 14.5739C13.3845 15.1014 12.6093 15.3908 11.8076 15.3881Z" fill="#DA671D"/>
</svg>
