<svg width="20" height="20" viewBox="0 0 20 20" fill="none" xmlns="http://www.w3.org/2000/svg">
<path d="M10 20C4.486 20 0 15.514 0 10C0 4.486 4.486 0 10 0C15.514 0 20 4.486 20 10C20 15.514 15.514 20 10 20ZM17.931 11H15.971C15.89 12.417 15.637 13.736 15.249 14.907C15.514 15.029 15.752 15.165 15.965 15.312C17.017 14.133 17.724 12.645 17.931 11ZM11 17.703C11.516 17.406 12.016 16.892 12.457 16.195C12.021 16.122 11.542 16.064 11 16.032V17.703ZM9 17.703V16.032C8.458 16.064 7.979 16.123 7.543 16.195C7.984 16.892 8.484 17.406 9 17.703ZM9 14.029V11H6.035C6.116 12.237 6.344 13.352 6.67 14.313C7.4 14.164 8.191 14.071 9 14.029ZM9 9V5.971C8.191 5.929 7.4 5.835 6.67 5.686C6.344 6.648 6.116 7.763 6.035 9H9ZM9 3.968V2.297C8.484 2.594 7.984 3.108 7.543 3.805C7.979 3.878 8.458 3.936 9 3.968ZM11 2.297V3.968C11.542 3.936 12.021 3.877 12.457 3.805C12.016 3.108 11.516 2.594 11 2.297ZM11 5.971V9H13.965C13.884 7.763 13.656 6.648 13.33 5.687C12.6 5.836 11.809 5.929 11 5.971ZM11 11V14.029C11.809 14.071 12.6 14.165 13.33 14.314C13.656 13.352 13.884 12.237 13.965 11.001L11 11ZM4.035 15.312C4.249 15.165 4.486 15.029 4.751 14.907C4.363 13.736 4.11 12.417 4.029 11H2.069C2.276 12.645 2.983 14.133 4.035 15.312ZM2.069 9H4.029C4.11 7.583 4.363 6.264 4.751 5.093C4.486 4.971 4.248 4.835 4.035 4.688C2.983 5.867 2.276 7.355 2.069 9ZM15.965 4.688C15.751 4.835 15.514 4.971 15.249 5.093C15.637 6.264 15.89 7.583 15.971 9H17.931C17.724 7.355 17.017 5.867 15.965 4.688Z" fill="#DA671D"/>
</svg>
